<svg xmlns:mydata="http://www.w3.org/2000/svg" mydata:contrastcolor="ffffff" mydata:template="Contrast" mydata:presentation="2.5" mydata:layouttype="undefined" mydata:specialfontid="undefined" mydata:id1="657" mydata:id2="125" mydata:companyname="MLC" mydata:companytagline="Quality in Every Square" version="1.1" xmlns="http://www.w3.org/2000/svg" xmlns:xlink="http://www.w3.org/1999/xlink" style="height: 544px;" viewBox="0 0 550 470">
  <g fill="#222223" fill-rule="none" stroke="none" stroke-width="1" stroke-linecap="butt" stroke-linejoin="miter" stroke-miterlimit="10" stroke-dasharray="" stroke-dashoffset="0" font-family="none" font-weight="none" font-size="none" text-anchor="none" style="mix-blend-mode: normal">
    <g data-paper-data="{&quot;isGlobalGroup&quot;:true,&quot;bounds&quot;:{&quot;x&quot;:145.9869611913097,&quot;y&quot;:106,&quot;width&quot;:258.0260776173807,&quot;height&quot;:258}}">
      <g data-paper-data="{&quot;fillRule&quot;:&quot;nonzero&quot;,&quot;fillRuleOriginal&quot;:&quot;evenodd&quot;,&quot;isIcon&quot;:true,&quot;iconStyle&quot;:&quot;standalone&quot;,&quot;selectedEffects&quot;:{&quot;container&quot;:&quot;circle_simple_filledplus&quot;,&quot;transformation&quot;:&quot;&quot;,&quot;pattern&quot;:&quot;&quot;},&quot;bounds&quot;:{&quot;x&quot;:199.28522931597848,&quot;y&quot;:159.28525091515684,&quot;width&quot;:151.4295360270666,&quot;height&quot;:151.42949816968638},&quot;widthRatioIconToContainer&quot;:0.7950142144924869,&quot;heightRatioIconToContainer&quot;:0.4403255138229407,&quot;relativeBoundsIconToContainer&quot;:{&quot;top&quot;:-0.05438739490808514,&quot;left&quot;:2.7600099417997633e-7},&quot;iconType&quot;:&quot;icon&quot;,&quot;isDetailed&quot;:false,&quot;source&quot;:&quot;noun&quot;,&quot;rawIconId&quot;:&quot;14177&quot;,&quot;blockLetter&quot;:&quot;O&quot;,&quot;suitableAsStandaloneIcon&quot;:true}" fill-rule="nonzero" id="element-id-47501">
        <path d="M207.72192,235.00003c0,-37.15669 30.12144,-67.27814 67.27814,-67.27814c37.15669,0 67.27814,30.12144 67.27814,67.27814c0,37.15669 -30.12144,67.27814 -67.27814,67.27814c-37.15669,0 -67.27814,-30.12144 -67.27814,-67.27814zM275.00008,254.05733c7.25855,-6.97805 11.94586,-17.95815 11.94586,-30.31614c0,-12.358 -4.6873,-23.33809 -11.94586,-30.31614c-7.25855,6.97682 -11.94462,17.95692 -11.94462,30.31614c0,12.358 4.68607,23.33809 11.94462,30.31614zM253.6267,196.40351c-1.87369,4.24564 -2.87636,9.15562 -2.97969,14.29442c3.54069,1.76051 6.935,3.9959 10.05863,6.67295c0.62252,-4.94935 1.96104,-9.66495 3.94792,-13.94873c-3.39429,-3.07443 -7.14783,-5.48574 -11.02685,-7.01865zM296.58749,196.40351c-3.87779,1.53291 -7.63009,3.94545 -11.02561,7.01865c1.98688,4.28377 3.32541,8.99815 3.94792,13.94873c3.12364,-2.67705 6.51794,-4.91244 10.05863,-6.67295c-0.10334,-5.13881 -1.10354,-10.04879 -2.98093,-14.29442zM289.70172,222.82218c0,10.72666 -3.32909,20.77422 -9.25035,28.34772c8.62661,-1.02358 17.60137,-5.23969 24.96942,-12.47733c8.81729,-8.65859 13.36804,-19.69529 13.25854,-29.76375c-9.70063,-0.2805 -20.37193,3.76461 -29.02683,11.81053c0.02953,0.69264 0.04921,1.38528 0.04921,2.08284zM269.54632,251.17112c0,0 0,0 -0.00001,0c-5.92002,-7.5735 -9.24911,-17.62106 -9.24911,-28.34771c0,-0.69756 0.01969,-1.39143 0.04798,-2.0816c-8.65367,-8.04592 -19.32743,-12.09103 -29.02683,-11.81053c-0.10949,10.06847 4.44125,21.10516 13.25731,29.76375c7.37051,7.23641 16.34527,11.45252 24.97064,12.4761c0,0 0,0.00001 0.00001,0.00001zM230.1693,220.20417c-4.16321,0.07874 -8.15172,0.79229 -11.77854,2.10867c1.34591,4.21734 3.60713,8.32888 6.65818,12.0775c3.44842,-1.04941 7.10231,-1.70268 10.85953,-1.91059c-2.5651,-3.88394 -4.50154,-8.02747 -5.73918,-12.27557zM332.38447,222.31408c0,0 0,0 0,0.00001v0zM332.38446,222.31409c-3.62558,-1.31761 -7.61532,-2.02994 -11.77976,-2.10867c-1.23641,4.2481 -3.17285,8.39163 -5.73672,12.27557c3.75599,0.20669 7.40988,0.85995 10.85707,1.91059c3.05227,-3.74984 5.31474,-7.86138 6.65941,-12.07749zM237.8043,235.16542c-8.8136,0.15009 -16.89766,2.81361 -22.99854,7.30038c5.6383,8.33995 15.66002,14.82959 27.83716,16.9358c11.11174,1.92167 21.74859,-0.20669 29.6887,-5.12282l-3.10887,-0.36908c-9.60097,-1.14045 -19.03955,-5.84621 -26.57615,-13.24747c-1.76911,-1.73714 -3.38322,-3.57884 -4.84231,-5.49682zM307.3523,240.66222c-7.53659,7.40249 -16.97517,12.10702 -26.57615,13.24747l-3.10887,0.36908c7.94258,4.9149 18.57943,7.04326 29.6887,5.12158c12.17837,-2.10621 22.19886,-8.59462 27.83839,-16.9358c-6.10211,-4.48554 -14.18493,-7.14906 -23.001,-7.29915c-1.45786,1.91798 -3.07197,3.75969 -4.84109,5.49682zM350.70092,236.49199l-0.01804,0.75625l-0.02524,0.75597l-0.03246,0.75597l-0.03995,0.75569l-0.04744,0.75541l-0.05493,0.75486l-0.06242,0.75458l-0.06991,0.75375l-0.0774,0.7532l-0.08489,0.75236l-0.09238,0.75153l-0.10015,0.7507l-0.10792,0.74959l-0.11513,0.74876l-0.1229,0.74737l-0.13066,0.74598l-0.13816,0.74487l-0.14564,0.74348l-0.15341,0.74182l-0.1609,0.74016l-0.1684,0.73849l-0.17589,0.73683l-0.18365,0.73516l-0.19086,0.73294l-0.19836,0.731l-0.20585,0.72906l-0.21333,0.72684l-0.22055,0.72434l-0.22804,0.7224l-0.23497,0.7199l-0.24246,0.7174l-0.2494,0.71491l-0.25689,0.71214l-0.26355,0.70964l-0.27076,0.70715l-0.2777,0.70409l-0.28435,0.70132l-0.29129,0.69826l-0.17145,0.40254l-0.30044,0.69022l-0.30876,0.69105l-0.31543,0.68772l-0.32236,0.68495l-0.32902,0.68162l-0.33595,0.67857l-0.34262,0.67496l-0.34955,0.67164l-0.35621,0.6683l-0.36286,0.6647l-0.36953,0.66109l-0.37618,0.6572l-0.38312,0.65332l-0.3895,0.64944l-0.39615,0.64583l-0.40254,0.64139l-0.40947,0.63751l-0.41558,0.63307l-0.42196,0.62891l-0.42861,0.62475l-0.43472,0.62004l-0.4411,0.61587l-0.44747,0.61115l-0.4533,0.60672l-0.45941,0.602l-0.46579,0.59728l-0.47134,0.59257l-0.47744,0.58785l-0.48326,0.58286l-0.48909,0.57786l-0.49464,0.57315l-0.50019,0.56816l-0.50602,0.56289l-0.51129,0.55817l-0.51656,0.5529l-0.52183,0.5479l-0.52738,0.54263l-0.53209,0.53736l-0.30988,0.30849l-0.53792,0.52682l-0.5454,0.52404l-0.5504,0.51905l-0.55567,0.51378l-0.56094,0.50824l-0.56566,0.50269l-0.57093,0.49714l-0.57564,0.49159l-0.58064,0.48576l-0.58563,0.47993l-0.59035,0.47411l-0.59507,0.46828l-0.59978,0.46218l-0.6045,0.45636l-0.60922,0.44997l-0.61365,0.44387l-0.61837,0.43749l-0.62253,0.43138l-0.62697,0.42501l-0.63141,0.41863l-0.63556,0.41224l-0.63945,0.40559l-0.64389,0.39893l-0.64778,0.39255l-0.65166,0.38617l-0.65555,0.37923l-0.65943,0.37258l-0.66303,0.36591l-0.66664,0.35926l-0.67024,0.35232l-0.67357,0.34594l-0.67691,0.33873l-0.68051,0.33235l-0.68329,0.32541l-0.68661,0.31848l-0.68966,0.31182l-0.69271,0.30488l-0.69521,0.29823l-0.68717,0.28685l-0.70104,0.28491l-0.70381,0.2777l-0.70687,0.27104l-0.70936,0.26383l-0.71214,0.25689l-0.71491,0.24996l-0.71713,0.24246l-0.7199,0.23553l-0.72212,0.22832l-0.72434,0.22083l-0.72656,0.21333l-0.72906,0.2064l-0.73072,0.19863l-0.73294,0.19114l-0.73489,0.18393l-0.73683,0.17616l-0.73849,0.16895l-0.74016,0.16118l-0.74182,0.15341l-0.74321,0.1462l-0.74487,0.13843l-0.74598,0.13066l-0.74737,0.12345l-0.74876,0.1154l-0.74959,0.1082l-0.7507,0.10043l-0.75153,0.09266l-0.75236,0.08544l-0.7532,0.07768l-0.75403,0.07019l-0.7543,0.0627l-0.75513,0.05493l-0.75541,0.04772l-0.75569,0.0405l-0.75597,0.03274l-0.75625,0.02552l-0.75653,0.01831l-0.75625,0.01082l-0.75653,0.0036l-0.74404,-0.00333l-0.75625,-0.01054l-0.75625,-0.01804l-0.75597,-0.02524l-0.75597,-0.03246l-0.75569,-0.03995l-0.75541,-0.04744l-0.75486,-0.05493l-0.75458,-0.06242l-0.75375,-0.06991l-0.7532,-0.0774l-0.75236,-0.08489l-0.75153,-0.09238l-0.7507,-0.10015l-0.74959,-0.10792l-0.74876,-0.11513l-0.74737,-0.1229l-0.74598,-0.13066l-0.74487,-0.13816l-0.74348,-0.14564l-0.74182,-0.15341l-0.74016,-0.1609l-0.73849,-0.1684l-0.73683,-0.17589l-0.73516,-0.18365l-0.73294,-0.19086l-0.731,-0.19836l-0.72906,-0.20585l-0.72656,-0.21333l-0.72462,-0.22055l-0.7224,-0.22804l-0.7199,-0.23497l-0.7174,-0.24246l-0.71491,-0.2494l-0.71214,-0.25689l-0.70964,-0.26355l-0.70715,-0.27076l-0.70409,-0.2777l-0.70132,-0.28435l-0.69826,-0.29129l-0.40254,-0.17145l-0.69022,-0.30044l-0.69097,-0.30876l-0.68791,-0.3157l-0.68484,-0.32208l-0.68164,-0.3293l-0.67849,-0.33568l-0.67507,-0.34262l-0.67172,-0.34955l-0.66822,-0.35621l-0.66464,-0.36286l-0.66098,-0.36953l-0.65723,-0.37618l-0.65346,-0.38312l-0.64952,-0.3895l-0.64558,-0.39615l-0.64151,-0.40281l-0.63743,-0.40919l-0.63318,-0.41558l-0.62896,-0.42223l-0.62461,-0.42833l-0.6202,-0.43472l-0.61579,-0.4411l-0.61121,-0.44747l-0.60666,-0.4533l-0.60197,-0.45941l-0.59734,-0.46579l-0.59254,-0.47134l-0.58774,-0.47744l-0.58289,-0.48326l-0.57801,-0.48909l-0.57306,-0.49464l-0.5681,-0.50019l-0.56308,-0.50602l-0.558,-0.51129l-0.55295,-0.51656l-0.5478,-0.52183l-0.54269,-0.52738l-0.53753,-0.53209l-0.30833,-0.30988l-0.52685,-0.53792l-0.52421,-0.5454l-0.51897,-0.5504l-0.51364,-0.55595l-0.50824,-0.56067l-0.50273,-0.56566l-0.49718,-0.57093l-0.49153,-0.57564l-0.48581,-0.58064l-0.48003,-0.58563l-0.47416,-0.59035l-0.46823,-0.59507l-0.46224,-0.59978l-0.45617,-0.6045l-0.45006,-0.60922l-0.44386,-0.61365l-0.43763,-0.61837l-0.43133,-0.62253l-0.42498,-0.62697l-0.41857,-0.63141l-0.41214,-0.63556l-0.40564,-0.63945l-0.39912,-0.64389l-0.39255,-0.64778l-0.38592,-0.65166l-0.37932,-0.65555l-0.37263,-0.65943l-0.36591,-0.66303l-0.35923,-0.66664l-0.35246,-0.67024l-0.34572,-0.67357l-0.33898,-0.67691l-0.33215,-0.68051l-0.32538,-0.68329l-0.31858,-0.68661l-0.31182,-0.68966l-0.30499,-0.69271l-0.2982,-0.69521l-0.28682,-0.68717l-0.28469,-0.70104l-0.27787,-0.70381l-0.27095,-0.70687l-0.26393,-0.70936l-0.25692,-0.71214l-0.24979,-0.71491l-0.24263,-0.71713l-0.23542,-0.7199l-0.22817,-0.72212l-0.22088,-0.72434l-0.2135,-0.72656l-0.20615,-0.72906l-0.19871,-0.73072l-0.19128,-0.73294l-0.18376,-0.73489l-0.17627,-0.73683l-0.16875,-0.73849l-0.16118,-0.74016l-0.15361,-0.74182l-0.14603,-0.74321l-0.13843,-0.74487l-0.13083,-0.74598l-0.12323,-0.74737l-0.11563,-0.74876l-0.10803,-0.74959l-0.10043,-0.7507l-0.09283,-0.75153l-0.08525,-0.75236l-0.07774,-0.7532l-0.07016,-0.75403l-0.06264,-0.7543l-0.05518,-0.75513l-0.04769,-0.75541l-0.04028,-0.75569l-0.03288,-0.75597l-0.02552,-0.75625l-0.0182,-0.75653l-0.0109,-0.75625l-0.00369,-0.75653l0.00341,-0.74404l0.01062,-0.75625l0.01792,-0.75625l0.02522,-0.75597l0.0326,-0.75597l0.03998,-0.75569l0.04738,-0.75544l0.05487,-0.75494l0.06237,-0.75441l0.06985,-0.75383l0.0774,-0.75317l0.08494,-0.75242l0.09255,-0.75158l0.10012,-0.75064l0.1077,-0.74967l0.11532,-0.74856l0.12292,-0.7474l0.1305,-0.74612l0.13813,-0.74479l0.14573,-0.74334l0.1533,-0.74185l0.1609,-0.74026l0.16842,-0.73854l0.17597,-0.73683l0.18349,-0.73497l0.19098,-0.73302l0.19844,-0.73103l0.20585,-0.72895l0.21323,-0.72681l0.2206,-0.72457l0.2279,-0.72224l0.23514,-0.71987l0.24238,-0.7174l0.24951,-0.71491l0.25664,-0.7123l0.26371,-0.70967l0.27068,-0.70692l0.27764,-0.70418l0.28449,-0.70132l0.29132,-0.69843l0.17145,-0.40238l0.3005,-0.69041l0.30871,-0.69088l0.31548,-0.6879l0.3223,-0.68483l0.3291,-0.68168l0.33587,-0.67843l0.34264,-0.67512l0.34941,-0.6717l0.35618,-0.66821l0.36289,-0.66464l0.36958,-0.66098l0.37629,-0.65726l0.38292,-0.65343l0.38958,-0.64952l0.39612,-0.64558l0.4027,-0.64153l0.40922,-0.6374l0.41569,-0.63321l0.42209,-0.62894l0.42848,-0.62461l0.43483,-0.62023l0.44106,-0.61576l0.44728,-0.61121l0.45344,-0.60666l0.45953,-0.602l0.46556,-0.59728l0.47153,-0.59257l0.47742,-0.58774l0.48325,-0.58289l0.489,-0.57801l0.49468,-0.57306l0.50029,-0.56807l0.50582,-0.56308l0.51126,-0.55803l0.51667,-0.55292l0.52194,-0.54782l0.52713,-0.54269l0.53228,-0.5375l0.30993,-0.3083l0.53772,-0.52685l0.54546,-0.52421l0.55057,-0.51897l0.55567,-0.51364l0.56075,-0.50824l0.56577,-0.50274l0.57079,-0.49717l0.57573,-0.49153l0.58066,-0.48582l0.58552,-0.47999l0.59035,-0.47416l0.59515,-0.46823l0.59984,-0.46224l0.60455,-0.45624l0.60913,-0.44997l0.61371,-0.44387l0.6182,-0.43749l0.62264,-0.43138l0.62699,-0.42501l0.63129,-0.41863l0.63554,-0.41224l0.63968,-0.40559l0.64378,-0.39893l0.64775,-0.39255l0.65175,-0.38617l0.65555,-0.37923l0.65935,-0.37258l0.66306,-0.36591l0.66664,-0.35926l0.67019,-0.35232l0.67363,-0.34594l0.67701,-0.33873l0.68029,-0.33235l0.68348,-0.32541l0.68661,-0.31848l0.68958,-0.31182l0.69271,-0.30488l0.69521,-0.29823l0.68717,-0.28685l0.70104,-0.28491l0.70381,-0.2777l0.70687,-0.27104l0.70936,-0.26383l0.71214,-0.25689l0.71491,-0.24996l0.71713,-0.24246l0.7199,-0.23553l0.72212,-0.22832l0.72434,-0.22083l0.72656,-0.21333l0.72906,-0.2064l0.73072,-0.19863l0.73294,-0.19114l0.73489,-0.18393l0.73683,-0.17616l0.73849,-0.16895l0.74016,-0.16118l0.74182,-0.15341l0.74321,-0.1462l0.74487,-0.13843l0.74598,-0.13066l0.74737,-0.12345l0.74876,-0.1154l0.74959,-0.1082l0.7507,-0.10043l0.75153,-0.09266l0.75236,-0.08544l0.7532,-0.07768l0.75403,-0.07019l0.7543,-0.0627l0.75513,-0.05493l0.75541,-0.04772l0.75569,-0.0405l0.75597,-0.03274l0.75625,-0.02552l0.75653,-0.01831l0.75625,-0.01082l0.75653,-0.0036l0.74404,0.00333l0.75625,0.01054l0.75625,0.01804l0.75597,0.02524l0.75597,0.03246l0.75569,0.03995l0.75541,0.04744l0.75486,0.05493l0.75458,0.06242l0.75375,0.06991l0.7532,0.0774l0.75236,0.08489l0.75153,0.09238l0.7507,0.10015l0.74959,0.10792l0.74876,0.11513l0.74737,0.1229l0.74598,0.13066l0.74487,0.13816l0.74348,0.14564l0.74182,0.15341l0.74016,0.1609l0.73849,0.1684l0.73683,0.17589l0.73516,0.18365l0.73294,0.19086l0.731,0.19836l0.72906,0.20585l0.72684,0.21333l0.72434,0.22055l0.7224,0.22804l0.7199,0.23497l0.7174,0.24246l0.71491,0.2494l0.71214,0.25689l0.70964,0.26355l0.70715,0.27076l0.70409,0.2777l0.70132,0.28435l0.69826,0.29129l0.40254,0.17145l0.69022,0.30044l0.69105,0.30876l0.68772,0.31543l0.68495,0.32236l0.68162,0.32902l0.67857,0.33595l0.67496,0.34262l0.67164,0.34955l0.6683,0.35621l0.6647,0.36286l0.66109,0.36953l0.6572,0.37618l0.65332,0.38312l0.64944,0.3895l0.64556,0.39615l0.64168,0.40254l0.63751,0.40919l0.63307,0.41586l0.62891,0.42196l0.62475,0.42861l0.62004,0.43472l0.61587,0.4411l0.61115,0.4472l0.60672,0.45358l0.602,0.45952l0.59728,0.46556l0.59257,0.47151l0.58785,0.47744l0.58286,0.48323l0.57786,0.489l0.57315,0.49467l0.56816,0.5003l0.56289,0.50582l0.55817,0.51129l0.5529,0.51661l0.5479,0.52196l0.54263,0.52713l0.53736,0.53228l0.30849,0.30993l0.52682,0.53772l0.52404,0.54543l0.51905,0.5506l0.51378,0.55567l0.50824,0.56075l0.50269,0.56577l0.49714,0.57079l0.49159,0.57573l0.48576,0.58064l0.47993,0.58555l0.47411,0.59032l0.46828,0.59515l0.46218,0.59987l0.45636,0.60452l0.44997,0.60916l0.44387,0.61371l0.43749,0.61817l0.43138,0.62264l0.42501,0.62699l0.41863,0.63129l0.41224,0.63554l0.40559,0.63968l0.39893,0.64378l0.39255,0.64778l0.38589,0.65168l0.37951,0.6556l0.37258,0.65932l0.36591,0.66306l0.35926,0.66664l0.35232,0.67019l0.34594,0.67365l0.33873,0.67701l0.33235,0.68027l0.32541,0.68349l0.31848,0.68661l0.31182,0.6896l0.30488,0.69259l0.29823,0.69542l0.28685,0.68709l0.28491,0.70101l0.2777,0.70395l0.27104,0.70675l0.26383,0.7095l0.25689,0.71214l0.24996,0.71475l0.24274,0.71724l0.23525,0.71974l0.22832,0.7221l0.22083,0.72445l0.21361,0.72664l0.20613,0.72887l0.19863,0.73092l0.19114,0.73294l0.18393,0.73486l0.17616,0.73674l0.16895,0.73849l0.16118,0.74021l0.15341,0.74176l0.1462,0.74331l0.13843,0.74473l0.13066,0.74612l0.12345,0.7474l0.1154,0.74851l0.1082,0.7497l0.10043,0.75064l0.09266,0.75161l0.08544,0.75242l0.07768,0.75323l0.07019,0.75386l0.0627,0.75447l0.05493,0.755l0.04772,0.75547l0.0405,0.75569l0.03274,0.75597l0.02552,0.75625l0.01831,0.75653l0.01082,0.75625l0.0036,0.75653v0.01664l-0.00333,0.72739zM347.15939,234.28595l-0.01027,-0.72212l-0.0172,-0.72185l-0.02441,-0.72185l-0.03107,-0.72129l-0.03828,-0.72102l-0.04522,-0.72035l-0.05243,-0.71985l-0.05965,-0.71927l-0.06658,-0.71855l-0.07407,-0.71774l-0.08101,-0.71697l-0.08822,-0.71605l-0.09543,-0.71508l-0.10292,-0.714l-0.10985,-0.71294l-0.11707,-0.71172l-0.12456,-0.71045l-0.13149,-0.70917l-0.13899,-0.70775l-0.14593,-0.70628l-0.15341,-0.70475l-0.16035,-0.70318l-0.16784,-0.70145l-0.17477,-0.69976l-0.18199,-0.69796l-0.18892,-0.69608l-0.19614,-0.69416l-0.20335,-0.69219l-0.21001,-0.69008l-0.21722,-0.688l-0.22415,-0.68581l-0.23109,-0.68359l-0.23802,-0.68129l-0.24469,-0.67896l-0.25162,-0.67652l-0.25828,-0.67407l-0.26493,-0.67161l-0.2716,-0.66914l-0.27325,-0.65557l-0.28463,-0.66372l-0.29074,-0.66082l-0.29739,-0.65791l-0.3035,-0.65486l-0.31016,-0.65177l-0.31653,-0.64862l-0.32292,-0.64536l-0.3293,-0.64205l-0.33568,-0.63869l-0.34206,-0.63525l-0.34844,-0.6317l-0.35482,-0.62814l-0.3612,-0.6245l-0.3673,-0.62079l-0.37368,-0.61701l-0.38007,-0.61312l-0.38617,-0.60927l-0.39227,-0.60527l-0.39837,-0.60128l-0.40448,-0.59717l-0.41086,-0.59304l-0.41641,-0.58888l-0.42279,-0.58461l-0.42833,-0.58033l-0.43444,-0.57598l-0.44027,-0.57159l-0.44609,-0.56716l-0.45164,-0.56272l-0.45747,-0.55817l-0.46301,-0.55362l-0.46856,-0.54904l-0.47383,-0.54438l-0.47938,-0.53978l-0.48465,-0.53506l-0.4902,-0.53034l-0.4952,-0.52563l-0.50019,-0.52083l-0.50796,-0.51864l-0.28935,-0.29101l-0.51322,-0.50834l-0.51794,-0.50332l-0.52266,-0.49822l-0.52738,-0.49308l-0.53237,-0.48785l-0.53681,-0.48252l-0.54152,-0.47716l-0.54624,-0.47175l-0.55095,-0.46623l-0.55539,-0.46069l-0.55983,-0.45508l-0.56455,-0.44939l-0.56899,-0.44365l-0.57315,-0.43788l-0.57786,-0.43203l-0.58203,-0.42615l-0.58619,-0.42021l-0.59063,-0.41419l-0.59478,-0.40819l-0.59867,-0.40212l-0.60283,-0.39596l-0.607,-0.38977l-0.61087,-0.38367l-0.61476,-0.37757l-0.61837,-0.37118l-0.62253,-0.36481l-0.62586,-0.35871l-0.62974,-0.35204l-0.63307,-0.34594l-0.63668,-0.33956l-0.64001,-0.33318l-0.64361,-0.3268l-0.64666,-0.32042l-0.65,-0.31404l-0.65305,-0.30738l-0.6561,-0.30128l-0.65915,-0.29462l-0.66553,-0.28962l-0.37729,-0.1609l-0.66637,-0.27825l-0.66886,-0.2716l-0.67164,-0.26493l-0.67385,-0.25828l-0.67662,-0.25134l-0.67884,-0.24496l-0.68106,-0.23775l-0.68356,-0.23109l-0.68578,-0.22443l-0.688,-0.21722l-0.68994,-0.21028l-0.69216,-0.20307l-0.69411,-0.19641l-0.69605,-0.18892l-0.69798,-0.18199l-0.69965,-0.17505l-0.70132,-0.16756l-0.70326,-0.16063l-0.70465,-0.15341l-0.70631,-0.1462l-0.7077,-0.13871l-0.70936,-0.13177l-0.71047,-0.12456l-0.71158,-0.11735l-0.71297,-0.10985l-0.71408,-0.10292l-0.71519,-0.09543l-0.71602,-0.08822l-0.71713,-0.08129l-0.71769,-0.07379l-0.71852,-0.06686l-0.71935,-0.05965l-0.7199,-0.05243l-0.72074,-0.0455l-0.72074,-0.03828l-0.72157,-0.03135l-0.72185,-0.02414l-0.72212,-0.0172l-0.7224,-0.01027l-0.71075,-0.0036l-0.72212,0.00333l-0.7224,0.01027l-0.72185,0.0172l-0.72185,0.02441l-0.72129,0.03107l-0.72102,0.03828l-0.72046,0.04522l-0.71962,0.05243l-0.71935,0.05965l-0.71852,0.06658l-0.71797,0.07407l-0.71685,0.08101l-0.71602,0.08822l-0.71491,0.09543l-0.71408,0.10292l-0.71297,0.10985l-0.71186,0.11707l-0.71047,0.12456l-0.70908,0.13149l-0.7077,0.13899l-0.70631,0.14593l-0.70465,0.15341l-0.70326,0.16035l-0.7016,0.16784l-0.69965,0.17477l-0.69798,0.18199l-0.69605,0.18892l-0.69411,0.19614l-0.69216,0.20335l-0.69022,0.21028l-0.688,0.21695l-0.68578,0.22415l-0.68356,0.23109l-0.68134,0.23802l-0.67884,0.24469l-0.67662,0.25162l-0.67413,0.25828l-0.67136,0.26493l-0.66914,0.2716l-0.65555,0.27325l-0.66387,0.28463l-0.66082,0.29074l-0.65776,0.29739l-0.65499,0.3035l-0.65177,0.31016l-0.64861,0.31653l-0.64536,0.32292l-0.64206,0.3293l-0.63868,0.33568l-0.63526,0.34206l-0.63171,0.34844l-0.62814,0.35482l-0.6245,0.3612l-0.62079,0.3673l-0.61701,0.37368l-0.61315,0.38007l-0.60924,0.38617l-0.6053,0.39227l-0.60125,0.39843l-0.5972,0.40454l-0.59304,0.41064l-0.58885,0.41663l-0.58463,0.42259l-0.58033,0.42853l-0.57598,0.43441l-0.57159,0.44024l-0.56716,0.44601l-0.56269,0.45172l-0.55817,0.45736l-0.55365,0.46296l-0.54902,0.46851l-0.54441,0.47397l-0.53975,0.47941l-0.53508,0.48471l-0.53034,0.49l-0.5256,0.49522l-0.52086,0.50035l-0.51864,0.50799l-0.29101,0.28935l-0.50834,0.51314l-0.50332,0.51791l-0.49825,0.52269l-0.49305,0.52746l-0.48785,0.5322l-0.48252,0.53689l-0.47719,0.54158l-0.47173,0.54621l-0.46623,0.55085l-0.46071,0.55539l-0.45505,0.55997l-0.4494,0.56444l-0.44366,0.56891l-0.43787,0.57334l-0.43204,0.5777l-0.42615,0.58206l-0.4202,0.5863l-0.41421,0.59054l-0.40819,0.5947l-0.40211,0.59884l-0.39599,0.60289l-0.38984,0.60688l-0.38365,0.61082l-0.37742,0.61474l-0.37118,0.61854l-0.36489,0.62231l-0.35859,0.62599l-0.35227,0.62963l-0.34592,0.63319l-0.33956,0.63668l-0.33315,0.6401l-0.32677,0.64345l-0.32039,0.64674l-0.31396,0.64995l-0.30755,0.65309l-0.30114,0.65617l-0.2947,0.65915l-0.28974,0.66547l-0.1609,0.37735l-0.27812,0.66631l-0.27154,0.66892l-0.26491,0.67149l-0.25828,0.67399l-0.25154,0.67646l-0.24477,0.67884l-0.23797,0.68121l-0.23109,0.68351l-0.22418,0.68576l-0.21725,0.68791l-0.21028,0.69006l-0.20324,0.69211l-0.19619,0.69411l-0.18912,0.69605l-0.18202,0.69793l-0.17489,0.69973l-0.1677,0.70145l-0.16055,0.70315l-0.15336,0.70473l-0.14614,0.70631l-0.13893,0.70775l-0.13169,0.70914l-0.12448,0.7105l-0.11724,0.71172l-0.11,0.71294l-0.10278,0.71405l-0.09554,0.71513l-0.08833,0.71607l-0.08114,0.71699l-0.07394,0.71785l-0.06677,0.7186l-0.05962,0.71929l-0.05252,0.71996l-0.04538,0.72062l-0.03828,0.72074l-0.03126,0.72157l-0.02424,0.72185l-0.01726,0.72212l-0.01032,0.7224l-0.00341,0.71075l0.00335,0.72212l0.01027,0.7224l0.0172,0.72185l0.02419,0.72185l0.03121,0.72129l0.03823,0.72102l0.04533,0.72046l0.05243,0.71962l0.05956,0.71935l0.06669,0.71852l0.07387,0.71797l0.08106,0.71685l0.08828,0.71602l0.09549,0.71491l0.1027,0.71408l0.10994,0.71297l0.11715,0.71186l0.12442,0.71047l0.13164,0.70908l0.13885,0.7077l0.14609,0.70631l0.15328,0.70465l0.16049,0.70326l0.16765,0.7016l0.17483,0.69965l0.18193,0.69798l0.18906,0.69605l0.19614,0.69411l0.20321,0.69216l0.21023,0.69022l0.2172,0.688l0.22415,0.68578l0.23107,0.68356l0.23792,0.68134l0.24474,0.67884l0.25151,0.67662l0.25825,0.67413l0.26491,0.67136l0.27157,0.66942l0.27345,0.65527l0.28447,0.66387l0.29084,0.66082l0.29726,0.65776l0.30369,0.65499l0.3101,0.65166l0.31651,0.64861l0.32292,0.64556l0.32932,0.64195l0.3357,0.63862l0.34209,0.63529l0.34844,0.63168l0.35479,0.62836l0.36111,0.62447l0.36741,0.62059l0.37368,0.61698l0.37992,0.61337l0.38614,0.60922l0.39231,0.60533l0.39846,0.60117l0.40455,0.59728l0.41062,0.59285l0.41664,0.58896l0.42261,0.58453l0.42853,0.58036l0.43441,0.57592l0.44023,0.57176l0.44601,0.56704l0.45172,0.56261l0.45736,0.55817l0.46299,0.55373l0.46851,0.54902l0.47394,0.5443l0.47941,0.53986l0.48473,0.53514l0.49,0.53043l0.49522,0.52543l0.50035,0.52099l0.50799,0.51849l0.28937,0.29101l0.51314,0.50851l0.51791,0.50324l0.52271,0.49825l0.52743,0.49297l0.5322,0.48798l0.53689,0.48243l0.54158,0.47716l0.54621,0.47161l0.55085,0.46634l0.55542,0.46079l0.55994,0.45497l0.56447,0.44942l0.56891,0.4436l0.57334,0.43805l0.5777,0.43195l0.58206,0.42612l0.5863,0.42029l0.59054,0.41419l0.5947,0.40809l0.59884,0.40226l0.60289,0.39587l0.60688,0.38977l0.61085,0.38367l0.61471,0.37757l0.61856,0.37118l0.62228,0.36481l0.62599,0.35843l0.62963,0.35232l0.63318,0.34594l0.63668,0.33956l0.64009,0.33318l0.64348,0.3268l0.64672,0.32042l0.65,0.31404l0.65305,0.30738l0.6561,0.30128l0.65915,0.29462l0.66553,0.28962l0.37729,0.1609l0.66637,0.27825l0.66886,0.2716l0.67164,0.26493l0.67385,0.25828l0.67662,0.25134l0.67884,0.24496l0.68106,0.23775l0.68356,0.23109l0.68578,0.22443l0.688,0.21722l0.68994,0.21028l0.69216,0.20307l0.69411,0.19641l0.69605,0.18892l0.69798,0.18199l0.69965,0.17505l0.70132,0.16756l0.70326,0.16063l0.70465,0.15341l0.70631,0.1462l0.7077,0.13871l0.70936,0.13177l0.71047,0.12456l0.71158,0.11735l0.71297,0.10985l0.71408,0.10292l0.71519,0.09543l0.71602,0.08822l0.71685,0.08129l0.71797,0.07379l0.71852,0.06686l0.71935,0.05965l0.7199,0.05243l0.72046,0.0455l0.72102,0.03828l0.72157,0.03135l0.72185,0.02414l0.72212,0.0172l0.7224,0.01027l0.71047,0.0036l0.7224,-0.00333l0.7224,-0.01027l0.72185,-0.0172l0.72185,-0.02441l0.72129,-0.03107l0.72102,-0.03828l0.72046,-0.04522l0.7199,-0.05243l0.71907,-0.05965l0.71852,-0.06658l0.71797,-0.07407l0.71685,-0.08101l0.71602,-0.08822l0.71491,-0.09543l0.71408,-0.10292l0.71297,-0.10985l0.71186,-0.11707l0.71047,-0.12456l0.70908,-0.13149l0.7077,-0.13899l0.70631,-0.14593l0.70465,-0.15341l0.70326,-0.16035l0.7016,-0.16784l0.69965,-0.17477l0.69798,-0.18199l0.69605,-0.18892l0.69411,-0.19614l0.69216,-0.20335l0.69022,-0.21028l0.688,-0.21695l0.68578,-0.22415l0.68356,-0.23109l0.68134,-0.23802l0.67884,-0.24469l0.67662,-0.25162l0.67413,-0.25828l0.67136,-0.26493l0.66914,-0.2716l0.65555,-0.27325l0.66387,-0.28463l0.66082,-0.29074l0.65776,-0.29739l0.65499,-0.3035l0.65166,-0.31016l0.64861,-0.31653l0.64556,-0.32292l0.64195,-0.3293l0.63862,-0.33568l0.63529,-0.34206l0.63168,-0.34844l0.62836,-0.35482l0.62447,-0.3612l0.62059,-0.3673l0.61698,-0.37368l0.61337,-0.38007l0.60922,-0.38617l0.60533,-0.39227l0.60117,-0.39837l0.59728,-0.40448l0.59285,-0.41086l0.58896,-0.41641l0.58453,-0.42279l0.58036,-0.42833l0.57592,-0.43444l0.57176,-0.44027l0.56704,-0.44609l0.56261,-0.45164l0.55845,-0.45747l0.55345,-0.46301l0.54902,-0.46828l0.54458,-0.47411l0.53958,-0.47938l0.53514,-0.48465l0.53043,-0.4902l0.52543,-0.4952l0.52099,-0.50019l0.51849,-0.50796l0.29101,-0.28935l0.50851,-0.51322l0.50324,-0.51794l0.49825,-0.52266l0.49297,-0.52738l0.48798,-0.53237l0.48243,-0.53681l0.47716,-0.54152l0.47161,-0.54624l0.46634,-0.55095l0.46079,-0.55539l0.45497,-0.55983l0.44942,-0.56455l0.4436,-0.56899l0.43805,-0.57315l0.43195,-0.57786l0.42612,-0.58203l0.42029,-0.58619l0.41419,-0.59063l0.40809,-0.59478l0.40226,-0.59867l0.39587,-0.60283l0.38977,-0.607l0.38367,-0.61087l0.37757,-0.61476l0.37118,-0.61837l0.36481,-0.62253l0.35871,-0.62586l0.35204,-0.62974l0.34594,-0.63307l0.33956,-0.63668l0.33318,-0.64001l0.3268,-0.64361l0.32042,-0.64666l0.31404,-0.65l0.30738,-0.65305l0.30128,-0.6561l0.29462,-0.65915l0.28962,-0.66553l0.1609,-0.37729l0.27825,-0.66637l0.2716,-0.66886l0.26493,-0.67164l0.25828,-0.67385l0.25134,-0.67662l0.24496,-0.67884l0.23775,-0.68106l0.23109,-0.68356l0.22443,-0.68578l0.21722,-0.688l0.21028,-0.68994l0.20307,-0.69216l0.19641,-0.69411l0.18892,-0.69605l0.18199,-0.69771l0.17505,-0.69993l0.16756,-0.70132l0.16063,-0.70326l0.15341,-0.70465l0.1462,-0.70631l0.13871,-0.7077l0.13177,-0.70936l0.12456,-0.71047l0.11735,-0.71158l0.10985,-0.71297l0.10292,-0.71408l0.09543,-0.71519l0.08822,-0.71602l0.08129,-0.71685l0.07379,-0.71797l0.06686,-0.71852l0.05965,-0.71935l0.05243,-0.7199l0.0455,-0.72074l0.03828,-0.72074l0.03135,-0.72157l0.02414,-0.72185l0.0172,-0.72212l0.01027,-0.7224l0.0036,-0.71075l-0.00028,-0.01664z" data-paper-data="{&quot;isPathIcon&quot;:true}" id="element-id-91331"/>
      </g>
      <g data-paper-data="{&quot;isPrimaryText&quot;:true}" fill-rule="nonzero" id="element-id-35610">
        <path d="M255.18634,132.71929l1.34186,-9.81586l8.49235,-1.64634l5.67218,19.73841l-6.74223,1.30706l-2.16161,-7.61847l-1.13778,8.2581l-6.74223,1.30706l-4.14124,-7.2347l0.84185,7.87432l-6.71354,1.3015l-2.14326,-20.42253l8.52104,-1.6519z" data-paper-data="{&quot;glyphName&quot;:&quot;M&quot;,&quot;glyphIndex&quot;:0,&quot;firstGlyphOfWord&quot;:true,&quot;word&quot;:1}" id="element-id-95102"/>
        <path d="M273.30239,120.58559l6.80252,0.30407l-0.66947,14.97722l6.83171,0.30537l-0.24404,5.45953l-13.63423,-0.60944z" data-paper-data="{&quot;glyphName&quot;:&quot;L&quot;,&quot;glyphIndex&quot;:1,&quot;word&quot;:1}" id="element-id-67674"/>
        <path d="M303.28206,124.18123c2.84132,0.68383 5.11813,2.46423 6.5205,4.75557l-5.98592,3.63931c-0.45307,-0.74028 -1.20973,-1.34322 -2.17578,-1.57572c-1.87527,-0.45133 -3.75044,0.72055 -4.20177,2.59582c-0.45133,1.87527 0.6853,3.77201 2.56057,4.22334c0.96605,0.2325 1.90734,0.06828 2.65446,-0.4132l3.66772,5.99276c-2.29135,1.40237 -5.12207,1.92344 -7.96339,1.23961c-5.62581,-1.35399 -9.09936,-7.02949 -7.73853,-12.68371c1.35399,-5.62581 7.03633,-9.12777 12.66214,-7.77378z" data-paper-data="{&quot;glyphName&quot;:&quot;C&quot;,&quot;glyphIndex&quot;:2,&quot;lastGlyphOfWord&quot;:true,&quot;word&quot;:1}" id="element-id-9026"/>
      </g>
      <g data-paper-data="{&quot;isContainerElementsWrapper&quot;:true}" fill-rule="evenodd" id="element-id-8861">
        <path d="M188.19809,139.57232c-12.10313,11.00915 -21.74842,23.81381 -28.93588,38.41398c-6.96343,14.14511 -11.1919,29.08801 -12.68541,44.82871c-1.49351,15.74076 -0.1508,31.21244 4.02812,46.41503c4.31342,15.69089 11.37843,30.081 21.19505,43.17036c12.18113,16.24148 27.35095,28.90178 45.50945,37.98091c18.15849,9.0788 37.38874,13.61869 57.69055,13.61869c20.30251,0 39.53207,-4.5399 57.69065,-13.61869c18.15859,-9.0788 33.32844,-21.7391 45.50955,-37.98091c9.81635,-13.08935 16.8814,-27.47947 21.19515,-43.17036c4.17925,-15.20243 5.5212,-30.67414 4.02783,-46.41503c-1.49337,-15.7409 -5.72244,-30.6838 -12.68521,-44.82881c-7.18825,-14.6003 -16.83358,-27.40493 -28.93599,-38.41388c-12.10373,-11.00919 -25.76228,-19.40184 -40.97563,-25.17794c-14.73914,-5.59625 -30.01459,-8.39437 -45.82635,-8.39437c-15.8113,0 -31.08682,2.79812 -45.82655,8.39437c-15.21382,5.77624 -28.87226,14.16889 -40.97534,25.17794zM192.22443,227.14619c-1.97107,20.774 3.11036,39.56268 15.24427,56.36604l-33.95009,25.46207c-9.02952,-12.37405 -15.56841,-25.92433 -19.6167,-40.65085c-4.06814,-14.79924 -5.37518,-29.86107 -3.92113,-45.18547c1.45392,-15.32433 5.57028,-29.87153 12.34908,-43.64158c6.99631,-14.2118 16.38598,-26.67667 28.169,-37.39462c11.78305,-10.71802 25.07912,-18.88831 39.88819,-24.51086c14.34881,-5.44774 29.21978,-8.17161 44.61292,-8.17161c15.39331,0 30.26398,2.72384 44.61292,8.17161c14.80888,5.62262 28.10478,13.7929 39.88773,24.51086c11.78361,10.71811 21.17323,23.18302 28.16888,37.39472c6.77913,13.77012 10.89595,28.31728 12.35047,43.64148c1.45386,15.32453 0.14645,30.38635 -3.92222,45.18547c-4.04775,14.72652 -10.58711,28.27647 -19.6161,40.65085l-33.95009,-25.46307c12.13362,-16.8027 17.21481,-35.59105 15.24357,-56.36505c-2.02437,-21.34339 -10.96668,-39.22821 -26.82593,-53.65436c-15.86025,-14.42611 -34.50999,-21.63917 -55.94921,-21.63917c-21.4393,0 -40.08877,7.21306 -55.94842,21.63917c-15.85967,14.42618 -24.80204,32.31097 -26.82713,53.65436zM328.64786,176.0213c15.20737,13.83269 23.78207,30.98198 25.72409,51.44787c1.94168,20.4657 -3.25474,38.92157 -15.58927,55.36761c-7.52864,10.03818 -16.90431,17.8627 -28.12703,23.47456c-11.22292,5.61086 -23.10814,8.41629 -35.65567,8.41629c-12.54743,0 -24.43265,-2.80543 -35.65547,-8.41629c-11.22282,-5.61186 -20.5984,-13.43638 -28.12693,-23.47456c-12.33459,-16.44604 -17.53098,-34.90191 -15.58917,-55.36761c1.94182,-20.46576 10.51644,-37.61505 25.72388,-51.44787c15.20757,-13.83292 33.09013,-20.74937 53.64769,-20.74937c20.55722,0 38.43985,6.91646 53.64788,20.74937zM338.0614,313.93561l3.45598,-2.89111l1.15166,1.37681l-1.7245,1.44257l0.43337,0.51805l1.37681,-1.15166l1.15764,1.38379l-1.37681,1.15166l0.43337,0.51805l1.7245,-1.44257l1.15764,1.38379l-3.45598,2.89111zM211.19785,313.15157c-1.4867,-1.21542 -3.67236,-0.99525 -4.89346,0.49912c-1.20278,1.47146 -0.983,3.65722 0.5037,4.87165c0.30635,0.25105 0.65533,0.44831 1.01109,0.57782l0.08946,0.95739l2.30661,-0.24607l-0.06217,-0.68542c0.58101,-0.22316 1.09398,-0.57683 1.51529,-1.09189c1.221,-1.49437 1.0087,-3.67416 -0.47053,-4.88261zM209.73257,314.94382c0.50051,0.40946 0.56676,1.13672 0.15771,1.63683c-0.40288,0.49314 -1.12247,0.56587 -1.62299,0.15641c-0.50051,-0.40946 -0.57294,-1.12875 -0.16996,-1.62189c0.40906,-0.50012 1.13472,-0.57982 1.63524,-0.17135zM334.73294,316.4352l-2.33919,1.72052l4.00093,5.4415l1.81118,-1.33198l-1.063,-1.44555l1.89486,0.83386l2.0981,-1.54319l-2.52847,-1.11082c0.16637,-0.68542 0.03885,-1.42961 -0.40746,-2.03533c-0.80596,-1.09587 -2.37007,-1.33497 -3.46694,-0.52901zM217.53607,318.06008l1.87195,1.31305l-2.24943,3.20692c-0.02212,0.03088 -0.04981,0.07073 -0.0799,0.09664l0.00787,0.00598c-0.91565,1.25427 -2.67064,1.55614 -3.95032,0.65852c-1.27958,-0.89762 -1.59399,-2.65101 -0.72567,-3.93916l0.07203,-0.10261l2.24943,-3.20692l1.87195,1.31305l-2.32145,3.30953c-0.14804,0.26201 -0.07801,0.58181 0.16687,0.75416c0.24488,0.17135 0.56975,0.12852 0.76522,-0.09962zM335.89058,319.11709l-0.42839,-0.5828l0.41245,-0.30286c0.16239,-0.12055 0.38654,-0.09365 0.50609,0.06974c0.12055,0.16338 0.08568,0.39252 -0.07771,0.51307zM327.11065,321.5041l1.63683,6.93587l2.01541,-1.25427l-0.19526,-0.87869l1.76037,-1.09687l0.68641,0.57284l2.01541,-1.25427l-5.50327,-4.52993zM216.91342,325.80291l5.40404,-4.64749l2.44788,1.45253l-1.4874,6.96974l-2.04131,-1.21044l0.19257,-0.87271l-1.78408,-1.05901l-0.6904,0.57782zM330.0974,324.38325l-0.28592,-1.24332l0.9813,0.80995zM324.18866,323.26546l-2.02736,1.05702l1.86896,3.58549c0.11258,0.27795 0.001,0.58679 -0.26401,0.72427c-0.266,0.13848 -0.58181,0.0538 -0.74619,-0.19825l-1.86896,-3.5845l-2.02736,1.05702l1.81118,3.47292l0.05778,0.11158c0.7432,1.36386 2.44379,1.89187 3.83057,1.16959c1.38578,-0.72328 1.92674,-2.41889 1.23435,-3.81064l-0.00897,0.00498c-0.00897,-0.03885 -0.03088,-0.08169 -0.04882,-0.11556zM222.10814,324.30754l-0.97204,0.82489l0.70524,0.41842zM227.74072,324.31451l2.00963,1.00721l-2.21824,4.42433l2.0183,1.01219l-0.80855,1.61292l-4.02793,-2.01939zM232.207,333.94423l-2.06263,-0.91854l2.74595,-6.16976l2.06263,0.91754zM314.88671,327.68482c-1.76336,0.75914 -2.57629,2.79945 -1.81417,4.57178c0.75117,1.74642 2.79148,2.55936 4.55584,1.80121c0.36363,-0.15641 0.70036,-0.37559 0.97831,-0.63162l0.89064,0.36263l0.84581,-2.15986l-0.6376,-0.26102c0.07073,-0.61867 -0.00598,-1.23734 -0.26899,-1.84804c-0.76312,-1.77332 -2.79447,-2.59024 -4.54986,-1.83509zM238.98855,331.29721l-1.78647,4.62657l-2.07907,-0.80297l1.78647,-4.62657l-1.5661,-0.60472l0.64646,-1.67369l5.2023,2.00843l-0.64646,1.67369zM315.80226,329.8118c0.59376,-0.25504 1.26922,0.02092 1.52426,0.61468c0.25205,0.58579 -0.01594,1.25726 -0.6097,1.5123c-0.59376,0.25604 -1.26523,-0.01195 -1.51728,-0.59675c-0.25504,-0.59376 0.00897,-1.2742 0.60273,-1.53023zM308.27661,334.52305l-1.47345,1.17258c1.76136,2.94391 6.21359,0.67247 5.35781,-1.80819c-0.43735,-1.26623 -1.76336,-1.2732 -2.72772,-1.27818c-0.54993,-0.00299 -0.9823,-0.00598 -1.063,-0.24109c-0.11058,-0.3188 0.60671,-0.60771 1.37681,0.05579l1.50334,-1.17258c-1.6468,-2.25849 -5.82007,-0.48119 -4.95533,1.96559c0.41344,1.16063 1.64879,1.18354 2.6012,1.20147c0.59974,0.01096 1.08691,0.01992 1.18653,0.30884c0.12852,0.37359 -0.99027,0.73922 -1.8062,-0.20423zM245.29868,335.44259l3.16428,-2.94491l-2.47199,-0.75814l-1.01787,0.94843l-0.31033,-1.35689l-2.47199,-0.75814l0.96805,4.21313l-0.88307,2.87716l2.13994,0.65653zM300.58559,332.75073l-1.28018,4.12845l0.6645,2.93594l-2.18278,0.49513l-0.66549,-2.93594l-2.93494,-3.17305l2.5215,-0.57185l0.94444,1.02315l0.41045,-1.32999zM251.92621,340.29431l2.21057,0.45927l1.37253,-6.61309l-2.21057,-0.45927zM258.24839,339.18449l0.9289,2.39797l2.22183,0.34271l1.02833,-6.67485l-2.22183,-0.34271l-0.40547,2.63208l-0.88188,-2.83034l-2.21227,-0.34072l-1.02833,6.67485l2.23139,0.34371zM290.11115,334.8568l-2.87148,0.43436l1.0093,6.67784l2.22273,-0.33574l-0.26819,-1.77432l1.28894,1.6199l2.5758,-0.38953l-1.72181,-2.15986c0.46644,-0.52901 0.69946,-1.2473 0.58699,-1.9915c-0.20333,-1.34493 -1.47723,-2.28439 -2.82227,-2.08116zM281.5779,335.81817l4.48859,-0.39152l0.15611,1.78727l-2.23946,0.19526l0.05868,0.67346l1.78776,-0.15641l0.15691,1.79723l-1.78776,0.15641l0.05878,0.67247l2.23946,-0.19526l0.15691,1.79723l-4.48859,0.39152zM267.35976,335.74345l4.49925,0.2391l-0.09534,1.79225l-2.24484,-0.11955l-0.03586,0.67446l1.79205,0.09564l-0.09584,1.80121l-1.79205,-0.09464l-0.03586,0.67346l2.24484,0.11955l-0.09594,1.80221l-4.49925,-0.2391zM273.01555,336.01344l2.40085,6.71371l2.84578,-0.04782l2.16215,-6.79141l-2.37316,0.03985l-1.26454,3.95908l-1.39793,-3.91326zM289.88779,337.76982l-0.10819,-0.7163l0.5056,-0.07571c0.20035,-0.03088 0.38565,0.09763 0.41593,0.29788c0.03029,0.20025 -0.1074,0.38654 -0.30774,0.41743z" data-paper-data="{&quot;isBaseLogoContainer&quot;:true}" id="element-id-72217"/>
      </g>
    </g>
  </g>
  <rect data-element-id="element-id-8861" stroke-width="2" fill="transparent" class="invisible-element-box grouping-element" x="146" y="106" width="258" height="258" data-element-name="isContainerElementsWrapper"/>
  <rect data-element-id="element-id-72217" stroke-width="2" fill="transparent" class="invisible-element-box individual-element" x="146" y="106" width="258" height="258"/>
  <rect data-element-id="element-id-47501" stroke-width="2" fill="transparent" class="invisible-element-box grouping-element" x="199" y="159" width="151" height="151" data-element-name="isIcon"/>
  <rect data-element-id="element-id-91331" stroke-width="2" fill="transparent" class="invisible-element-box individual-element" x="199" y="159" width="151" height="151"/>
  <rect data-element-id="element-id-35610" stroke-width="2" fill="transparent" class="invisible-element-box grouping-element" x="242" y="121" width="68" height="26" data-element-name="isPrimaryText"/>
  <rect data-element-id="element-id-95102" stroke-width="2" fill="transparent" class="invisible-element-box individual-element" x="242" y="121" width="29" height="25"/>
  <rect data-element-id="element-id-9026" stroke-width="2" fill="transparent" class="invisible-element-box individual-element" x="290" y="124" width="19" height="21"/>
  <rect data-element-id="element-id-67674" stroke-width="2" fill="transparent" class="invisible-element-box individual-element" x="272" y="121" width="14" height="21"/>
</svg>
