<svg xmlns:mydata="http://www.w3.org/2000/svg" mydata:contrastcolor="ffffff" mydata:template="Contrast" mydata:presentation="2.5" mydata:layouttype="undefined" mydata:specialfontid="undefined" mydata:id1="237" mydata:id2="281" mydata:companyname="MLC" mydata:companytagline="Quality in Every Square" version="1.1" xmlns="http://www.w3.org/2000/svg" xmlns:xlink="http://www.w3.org/1999/xlink" style="height: 544px;" viewBox="0 0 550 470">
  <g fill="#000000" fill-rule="none" stroke="none" stroke-width="1" stroke-linecap="butt" stroke-linejoin="miter" stroke-miterlimit="10" stroke-dasharray="" stroke-dashoffset="0" font-family="none" font-weight="none" font-size="none" text-anchor="none" style="mix-blend-mode: normal">
    <g data-paper-data="{&quot;isGlobalGroup&quot;:true,&quot;bounds&quot;:{&quot;x&quot;:175.08654396646943,&quot;y&quot;:115,&quot;width&quot;:199.82691206706113,&quot;height&quot;:240}}">
      <g data-paper-data="{&quot;isSecondaryText&quot;:true}" fill-rule="nonzero" id="element-id-9418">
        <path d="M182.83332,354.82861c0.28565,-0.05713 0.46846,-0.3085 0.46846,-0.59415c-0.01143,-0.15996 -0.0457,-0.31993 -0.17139,-0.43418l-0.34278,-0.33135c0.65128,-0.76554 1.05118,-1.75959 1.05118,-2.84505c0,-2.42229 -1.95383,-4.37613 -4.37613,-4.37613c-2.42229,0 -4.37613,1.95383 -4.37613,4.37613c0,2.42229 1.95383,4.37613 4.37613,4.37613c0.84552,0 1.64533,-0.23994 2.31946,-0.6627c0.36563,0.39991 0.52559,0.54844 0.78839,0.54844c0.09141,0 0.18281,-0.02285 0.2628,-0.05713zM176.41195,350.62387c0,-1.67961 1.37111,-3.03929 3.05072,-3.03929c1.67961,0 3.03929,1.35968 3.03929,3.03929c0,0.71983 -0.25137,1.37111 -0.6627,1.88528l-0.59415,-0.617c-0.11426,-0.11426 -0.2628,-0.20567 -0.44561,-0.20567c-0.34278,0 -0.6627,0.33135 -0.6627,0.68555c0,0.34278 0.34278,0.617 0.69698,0.9712c-0.41133,0.20567 -0.8798,0.33135 -1.37111,0.33135c-1.67961,0 -3.05072,-1.37111 -3.05072,-3.05072z" data-paper-data="{&quot;glyphName&quot;:&quot;Q&quot;,&quot;glyphIndex&quot;:0,&quot;firstGlyphOfWord&quot;:true,&quot;word&quot;:1}" fill="#000000" id="element-id-5939"/>
        <path d="M187.00758,352.47487c0,1.42824 1.2797,2.50228 2.70794,2.50228c1.41681,0 2.67366,-1.06261 2.67366,-2.49085v-5.54157c0,-0.37706 -0.28565,-0.65128 -0.6627,-0.65128c-0.37706,0 -0.67413,0.28565 -0.67413,0.65128v5.39303c0,0.73126 -0.60557,1.31398 -1.33683,1.31398c-0.73126,0 -1.37111,-0.5713 -1.37111,-1.34826v-5.35875c0,-0.37706 -0.28565,-0.65128 -0.6627,-0.65128c-0.37706,0 -0.67413,0.28565 -0.67413,0.65128z" data-paper-data="{&quot;glyphName&quot;:&quot;U&quot;,&quot;glyphIndex&quot;:1,&quot;word&quot;:1}" fill="#000000" id="element-id-23976"/>
        <path d="M202.08218,354.30302c0,-0.09141 -0.02285,-0.17139 -0.0457,-0.23994c-1.37111,-3.72485 -2.12522,-5.71296 -2.69652,-7.15262c-0.12569,-0.37706 -0.34278,-0.58272 -0.74268,-0.58272c-0.33135,0 -0.52559,0.20567 -0.617,0.44561l-2.63939,7.03836c-0.05713,0.12569 -0.13711,0.33135 -0.13711,0.44561c0,0.34278 0.25137,0.69698 0.68555,0.69698c0.29707,0 0.50274,-0.18281 0.62843,-0.47989l0.46846,-1.25685c0.01143,-0.0457 0.0457,-0.06856 0.10283,-0.06856h3.09642c0.12569,0.01143 0.38848,0.77696 0.49131,1.06261l0.09141,0.2628c0.10283,0.28565 0.33135,0.47989 0.617,0.47989c0.39991,0 0.69698,-0.28565 0.69698,-0.65128zM198.64298,348.72717c0.01143,0 0.02285,0.03428 0.02285,0.0457l1.09689,3.01644c0.01143,0.01143 0.01143,0.02285 0.01143,0.03428c0,0.03428 -0.03428,0.05713 -0.05713,0.05713h-2.1595c-0.03428,0 -0.05713,-0.02285 -0.05713,-0.0457c0,-0.01143 0,-0.03428 0.01143,-0.0457l1.09689,-3.01644c0.01143,-0.01143 0.01143,-0.0457 0.03428,-0.0457z" data-paper-data="{&quot;glyphName&quot;:&quot;A&quot;,&quot;glyphIndex&quot;:2,&quot;word&quot;:1}" fill="#000000" id="element-id-67427"/>
        <path d="M209.90131,354.24589c0,-0.38848 -0.27422,-0.6627 -0.65128,-0.6627h-2.28518c-0.06856,0 -0.10283,-0.0457 -0.10283,-0.10283v-6.55848c0,-0.37706 -0.28565,-0.63985 -0.6627,-0.63985c-0.37706,0 -0.6627,0.27422 -0.6627,0.63985v7.34686c0,0.41133 0.34278,0.63985 0.68555,0.63985h3.02787c0.37706,0 0.65128,-0.29707 0.65128,-0.6627z" data-paper-data="{&quot;glyphName&quot;:&quot;L&quot;,&quot;glyphIndex&quot;:3,&quot;word&quot;:1}" fill="#000000" id="element-id-83123"/>
        <path d="M213.9956,354.9543c0.37706,0 0.6627,-0.28565 0.6627,-0.63985v-7.36972c0,-0.37706 -0.28565,-0.65128 -0.6627,-0.65128c-0.36563,0 -0.6627,0.3085 -0.6627,0.65128v7.36972c0,0.36563 0.29707,0.63985 0.6627,0.63985z" data-paper-data="{&quot;glyphName&quot;:&quot;I&quot;,&quot;glyphIndex&quot;:4,&quot;word&quot;:1}" fill="#000000" id="element-id-73276"/>
        <path d="M223.41436,347.02471c0,-0.36563 -0.46846,-0.68555 -0.63985,-0.68555h-4.17046c-0.33135,0 -0.63985,0.38848 -0.63985,0.68555c0,0.33135 0.29707,0.65128 0.63985,0.65128h1.33683c0.05713,0 0.06856,0.03428 0.06856,0.06856v6.59275c0,0.36563 0.29707,0.617 0.67413,0.617c0.3542,0 0.6627,-0.2628 0.6627,-0.617v-6.55848c0,-0.11426 0.06856,-0.10283 0.07998,-0.10283h1.34826c0.33135,0 0.63985,-0.31993 0.63985,-0.65128z" data-paper-data="{&quot;glyphName&quot;:&quot;T&quot;,&quot;glyphIndex&quot;:5,&quot;word&quot;:1}" fill="#000000" id="element-id-1545"/>
        <path d="M229.46248,354.9543c0.50274,0 0.6627,-0.38848 0.6627,-0.90265v-2.22805l1.99954,-4.59322c0.0457,-0.09141 0.05713,-0.19424 0.05713,-0.2628c0,-0.37706 -0.29707,-0.67413 -0.6627,-0.67413c-0.2628,0 -0.51417,0.14854 -0.617,0.39991l-1.40539,3.34779c-0.01143,0.02285 -0.02285,0.03428 -0.03428,0.03428c-0.02285,0 -0.03428,-0.01143 -0.0457,-0.03428l-1.31398,-3.14213c-0.12569,-0.3542 -0.34278,-0.60557 -0.70841,-0.60557c-0.38848,0 -0.65128,0.31993 -0.65128,0.67413c0,0.06856 0,0.17139 0.05713,0.2628c0.6627,1.53107 1.32541,3.06215 1.99954,4.59322v2.22805c0,0.46846 0.17139,0.90265 0.6627,0.90265z" data-paper-data="{&quot;glyphName&quot;:&quot;Y&quot;,&quot;glyphIndex&quot;:6,&quot;lastGlyphOfWord&quot;:true,&quot;word&quot;:1}" fill="#000000" id="element-id-62221"/>
        <path d="M241.9929,354.9543c0.37706,0 0.6627,-0.28565 0.6627,-0.63985v-7.36972c0,-0.37706 -0.28565,-0.65128 -0.6627,-0.65128c-0.36563,0 -0.6627,0.3085 -0.6627,0.65128v7.36972c0,0.36563 0.29707,0.63985 0.6627,0.63985z" data-paper-data="{&quot;glyphName&quot;:&quot;I&quot;,&quot;glyphIndex&quot;:7,&quot;firstGlyphOfWord&quot;:true,&quot;word&quot;:2}" fill="#000000" id="element-id-87339"/>
        <path d="M247.03554,346.29345c-0.51417,0 -0.89122,0.41133 -0.89122,0.9255v7.09549c0,0.36563 0.29707,0.63985 0.67413,0.63985c0.37706,0 0.65128,-0.2628 0.65128,-0.63985v-5.49587c0,-0.05713 0.03428,-0.09141 0.07998,-0.09141c0.02285,0 0.0457,0.01143 0.06856,0.05713l3.40492,5.6444c0.14854,0.25137 0.43418,0.52559 0.8798,0.52559c0.5713,0 0.90265,-0.46846 0.90265,-0.91407v-7.09549c0,-0.37706 -0.29707,-0.65128 -0.67413,-0.65128c-0.37706,0 -0.6627,0.27422 -0.6627,0.63985v5.53014c0,0.05713 -0.02285,0.09141 -0.06856,0.09141c-0.02285,0 -0.0457,-0.02285 -0.06856,-0.06856l-3.41635,-5.66725c-0.14854,-0.23994 -0.44561,-0.51417 -0.8798,-0.52559z" data-paper-data="{&quot;glyphName&quot;:&quot;N&quot;,&quot;glyphIndex&quot;:8,&quot;lastGlyphOfWord&quot;:true,&quot;word&quot;:2}" fill="#000000" id="element-id-3669"/>
        <path d="M266.45579,354.24589c0,-0.36563 -0.3085,-0.6627 -0.65128,-0.6627h-2.42229c-0.05713,0 -0.06856,-0.03428 -0.06856,-0.06856v-2.18235c0,-0.03428 0.02285,-0.05713 0.06856,-0.05713h2.42229c0.36563,0 0.65128,-0.29707 0.65128,-0.67413c0,-0.36563 -0.3085,-0.6627 -0.65128,-0.6627h-2.42229c-0.0457,0 -0.06856,-0.01143 -0.06856,-0.05713v-2.14807c0,-0.03428 0.02285,-0.05713 0.06856,-0.05713h2.42229c0.37706,0 0.60557,-0.27422 0.60557,-0.60557c0,-0.49131 -0.28565,-0.73126 -0.60557,-0.73126h-3.1764c-0.50274,0 -0.65128,0.43418 -0.65128,0.93693v6.72986c0,0.46846 0.13711,0.90265 0.6627,0.90265h3.05072c0.41133,0 0.76554,-0.22852 0.76554,-0.6627z" data-paper-data="{&quot;glyphName&quot;:&quot;E&quot;,&quot;glyphIndex&quot;:9,&quot;firstGlyphOfWord&quot;:true,&quot;word&quot;:3}" fill="#000000" id="element-id-82077"/>
        <path d="M276.30874,346.95615c0,-0.36563 -0.29707,-0.6627 -0.69698,-0.6627c-0.29707,0 -0.53702,0.20567 -0.617,0.49131l-1.93098,5.73581c0,0.01143 -0.01143,0.03428 -0.02285,0.03428c-0.02285,0 -0.02285,-0.02285 -0.03428,-0.03428l-1.91955,-5.73581c-0.09141,-0.27422 -0.33135,-0.49131 -0.62843,-0.49131c-0.39991,0 -0.68555,0.29707 -0.68555,0.6627c0,0.09141 0.02285,0.17139 0.0457,0.23994l2.55941,7.28973c0.10283,0.29707 0.39991,0.44561 0.70841,0.44561c0.33135,0 0.51417,-0.19424 0.60557,-0.44561l2.57083,-7.28973c0.02285,-0.06856 0.0457,-0.14854 0.0457,-0.23994z" data-paper-data="{&quot;glyphName&quot;:&quot;V&quot;,&quot;glyphIndex&quot;:10,&quot;word&quot;:3}" fill="#000000" id="element-id-14138"/>
        <path d="M284.24213,354.24589c0,-0.36563 -0.3085,-0.6627 -0.65128,-0.6627h-2.42229c-0.05713,0 -0.06856,-0.03428 -0.06856,-0.06856v-2.18235c0,-0.03428 0.02285,-0.05713 0.06856,-0.05713h2.42229c0.36563,0 0.65128,-0.29707 0.65128,-0.67413c0,-0.36563 -0.3085,-0.6627 -0.65128,-0.6627h-2.42229c-0.0457,0 -0.06856,-0.01143 -0.06856,-0.05713v-2.14807c0,-0.03428 0.02285,-0.05713 0.06856,-0.05713h2.42229c0.37706,0 0.60557,-0.27422 0.60557,-0.60557c0,-0.49131 -0.28565,-0.73126 -0.60557,-0.73126h-3.1764c-0.50274,0 -0.65128,0.43418 -0.65128,0.93693v6.72986c0,0.46846 0.13711,0.90265 0.6627,0.90265h3.05072c0.41133,0 0.76554,-0.22852 0.76554,-0.6627z" data-paper-data="{&quot;glyphName&quot;:&quot;E&quot;,&quot;glyphIndex&quot;:11,&quot;word&quot;:3}" fill="#000000" id="element-id-2371"/>
        <path d="M292.71255,354.85146c0.19424,-0.11426 0.3085,-0.31993 0.3085,-0.53702c0,-0.09141 -0.02285,-0.18281 -0.06856,-0.27422l-1.51965,-2.65081c0,-0.01143 -0.01143,-0.02285 -0.01143,-0.03428c0,-0.02285 0.01143,-0.03428 0.03428,-0.0457c0.83409,-0.52559 1.29113,-1.32541 1.29113,-2.36516c0,-1.65676 -1.08546,-2.60511 -2.75365,-2.60511h-1.48537c-0.47989,0 -0.79981,0.38848 -0.79981,0.8798v6.82127c0,0.45704 0.14854,0.91407 0.65128,0.91407c0.49131,0 0.68555,-0.39991 0.68555,-0.90265v-2.45657c0,-0.0457 0.02285,-0.06856 0.06856,-0.06856h0.82267c0.06856,0 0.09141,0.02285 0.11426,0.06856l1.56535,2.7765c0.19424,0.3542 0.3542,0.59415 0.70841,0.59415c0.14854,0 0.27422,-0.0457 0.38848,-0.11426zM289.04483,347.75597c0,-0.05713 0.02285,-0.09141 0.07998,-0.09141h0.95978c1.08546,0 1.34826,0.70841 1.34826,1.2797c0,0.65128 -0.2628,1.34826 -1.34826,1.34826h-0.95978c-0.05713,0 -0.07998,-0.02285 -0.07998,-0.07998z" data-paper-data="{&quot;glyphName&quot;:&quot;R&quot;,&quot;glyphIndex&quot;:12,&quot;word&quot;:3}" fill="#000000" id="element-id-67642"/>
        <path d="M299.11487,354.9543c0.50274,0 0.6627,-0.38848 0.6627,-0.90265v-2.22805l1.99954,-4.59322c0.0457,-0.09141 0.05713,-0.19424 0.05713,-0.2628c0,-0.37706 -0.29707,-0.67413 -0.6627,-0.67413c-0.2628,0 -0.51417,0.14854 -0.617,0.39991l-1.40539,3.34779c-0.01143,0.02285 -0.02285,0.03428 -0.03428,0.03428c-0.02285,0 -0.03428,-0.01143 -0.0457,-0.03428l-1.31398,-3.14213c-0.12569,-0.3542 -0.34278,-0.60557 -0.70841,-0.60557c-0.38848,0 -0.65128,0.31993 -0.65128,0.67413c0,0.06856 0,0.17139 0.05713,0.2628c0.6627,1.53107 1.32541,3.06215 1.99954,4.59322v2.22805c0,0.46846 0.17139,0.90265 0.6627,0.90265z" data-paper-data="{&quot;glyphName&quot;:&quot;Y&quot;,&quot;glyphIndex&quot;:13,&quot;lastGlyphOfWord&quot;:true,&quot;word&quot;:3}" fill="#000000" id="element-id-71053"/>
        <path d="M310.89118,353.30896c0,0.91407 1.14259,1.69104 2.41087,1.69104c1.2797,0 2.36516,-1.09689 2.36516,-2.44515c0,-1.33683 -0.65128,-1.98811 -2.09094,-2.61653c-0.68555,-0.29707 -1.33683,-0.47989 -1.33683,-1.30255c0,-0.53702 0.47989,-1.03976 1.03976,-1.03976c0.34278,0 0.71983,0.15996 0.93693,0.53702c0.12569,0.22852 0.34278,0.36563 0.58272,0.36563c0.36563,0 0.6627,-0.3085 0.6627,-0.67413c0,-0.09141 -0.02285,-0.18281 -0.05713,-0.27422c-0.34278,-0.79981 -1.21115,-1.29113 -2.07952,-1.29113c-1.39396,0 -2.42229,1.02833 -2.42229,2.44515c0,1.21115 0.73126,1.93098 2.05666,2.41087c0.69698,0.25137 1.39396,0.5713 1.39396,1.43967c0,0.60557 -0.52559,1.13117 -1.08546,1.13117c-1.00548,0 -1.06261,-1.00548 -1.80529,-1.00548c-0.29707,0 -0.5713,0.27422 -0.5713,0.62843z" data-paper-data="{&quot;glyphName&quot;:&quot;S&quot;,&quot;glyphIndex&quot;:14,&quot;firstGlyphOfWord&quot;:true,&quot;word&quot;:4}" fill="#000000" id="element-id-76062"/>
        <path d="M326.79986,354.82861c0.28565,-0.05713 0.46846,-0.3085 0.46846,-0.59415c-0.01143,-0.15996 -0.0457,-0.31993 -0.17139,-0.43418l-0.34278,-0.33135c0.65128,-0.76554 1.05118,-1.75959 1.05118,-2.84505c0,-2.42229 -1.95383,-4.37613 -4.37613,-4.37613c-2.42229,0 -4.37613,1.95383 -4.37613,4.37613c0,2.42229 1.95383,4.37613 4.37613,4.37613c0.84552,0 1.64533,-0.23994 2.31946,-0.6627c0.36563,0.39991 0.52559,0.54844 0.78839,0.54844c0.09141,0 0.18281,-0.02285 0.2628,-0.05713zM320.3785,350.62387c0,-1.67961 1.37111,-3.03929 3.05072,-3.03929c1.67961,0 3.03929,1.35968 3.03929,3.03929c0,0.71983 -0.25137,1.37111 -0.6627,1.88528l-0.59415,-0.617c-0.11426,-0.11426 -0.2628,-0.20567 -0.44561,-0.20567c-0.34278,0 -0.6627,0.33135 -0.6627,0.68555c0,0.34278 0.34278,0.617 0.69698,0.9712c-0.41133,0.20567 -0.8798,0.33135 -1.37111,0.33135c-1.67961,0 -3.05072,-1.37111 -3.05072,-3.05072z" data-paper-data="{&quot;glyphName&quot;:&quot;Q&quot;,&quot;glyphIndex&quot;:15,&quot;word&quot;:4}" fill="#000000" id="element-id-91847"/>
        <path d="M330.97413,352.47487c0,1.42824 1.2797,2.50228 2.70794,2.50228c1.41681,0 2.67366,-1.06261 2.67366,-2.49085v-5.54157c0,-0.37706 -0.28565,-0.65128 -0.6627,-0.65128c-0.37706,0 -0.67413,0.28565 -0.67413,0.65128v5.39303c0,0.73126 -0.60557,1.31398 -1.33683,1.31398c-0.73126,0 -1.37111,-0.5713 -1.37111,-1.34826v-5.35875c0,-0.37706 -0.28565,-0.65128 -0.6627,-0.65128c-0.37706,0 -0.67413,0.28565 -0.67413,0.65128z" data-paper-data="{&quot;glyphName&quot;:&quot;U&quot;,&quot;glyphIndex&quot;:16,&quot;word&quot;:4}" fill="#000000" id="element-id-46387"/>
        <path d="M346.04873,354.30302c0,-0.09141 -0.02285,-0.17139 -0.0457,-0.23994c-1.37111,-3.72485 -2.12522,-5.71296 -2.69652,-7.15262c-0.12569,-0.37706 -0.34278,-0.58272 -0.74268,-0.58272c-0.33135,0 -0.52559,0.20567 -0.617,0.44561l-2.63939,7.03836c-0.05713,0.12569 -0.13711,0.33135 -0.13711,0.44561c0,0.34278 0.25137,0.69698 0.68555,0.69698c0.29707,0 0.50274,-0.18281 0.62843,-0.47989l0.46846,-1.25685c0.01143,-0.0457 0.0457,-0.06856 0.10283,-0.06856h3.09642c0.12569,0.01143 0.38848,0.77696 0.49131,1.06261l0.09141,0.2628c0.10283,0.28565 0.33135,0.47989 0.617,0.47989c0.39991,0 0.69698,-0.28565 0.69698,-0.65128zM342.60952,348.72717c0.01143,0 0.02285,0.03428 0.02285,0.0457l1.09689,3.01644c0.01143,0.01143 0.01143,0.02285 0.01143,0.03428c0,0.03428 -0.03428,0.05713 -0.05713,0.05713h-2.1595c-0.03428,0 -0.05713,-0.02285 -0.05713,-0.0457c0,-0.01143 0,-0.03428 0.01143,-0.0457l1.09689,-3.01644c0.01143,-0.01143 0.01143,-0.0457 0.03428,-0.0457z" data-paper-data="{&quot;glyphName&quot;:&quot;A&quot;,&quot;glyphIndex&quot;:17,&quot;word&quot;:4}" fill="#000000" id="element-id-87810"/>
        <path d="M354.49629,354.85146c0.19424,-0.11426 0.3085,-0.31993 0.3085,-0.53702c0,-0.09141 -0.02285,-0.18281 -0.06856,-0.27422l-1.51965,-2.65081c0,-0.01143 -0.01143,-0.02285 -0.01143,-0.03428c0,-0.02285 0.01143,-0.03428 0.03428,-0.0457c0.83409,-0.52559 1.29113,-1.32541 1.29113,-2.36516c0,-1.65676 -1.08546,-2.60511 -2.75365,-2.60511h-1.48537c-0.47989,0 -0.79981,0.38848 -0.79981,0.8798v6.82127c0,0.45704 0.14854,0.91407 0.65128,0.91407c0.49131,0 0.68555,-0.39991 0.68555,-0.90265v-2.45657c0,-0.0457 0.02285,-0.06856 0.06856,-0.06856h0.82267c0.06856,0 0.09141,0.02285 0.11426,0.06856l1.56535,2.7765c0.19424,0.3542 0.3542,0.59415 0.70841,0.59415c0.14854,0 0.27422,-0.0457 0.38848,-0.11426zM350.82857,347.75597c0,-0.05713 0.02285,-0.09141 0.07998,-0.09141h0.95978c1.08546,0 1.34826,0.70841 1.34826,1.2797c0,0.65128 -0.2628,1.34826 -1.34826,1.34826h-0.95978c-0.05713,0 -0.07998,-0.02285 -0.07998,-0.07998z" data-paper-data="{&quot;glyphName&quot;:&quot;R&quot;,&quot;glyphIndex&quot;:18,&quot;word&quot;:4}" fill="#000000" id="element-id-51456"/>
        <path d="M362.79531,354.24589c0,-0.36563 -0.3085,-0.6627 -0.65128,-0.6627h-2.42229c-0.05713,0 -0.06856,-0.03428 -0.06856,-0.06856v-2.18235c0,-0.03428 0.02285,-0.05713 0.06856,-0.05713h2.42229c0.36563,0 0.65128,-0.29707 0.65128,-0.67413c0,-0.36563 -0.3085,-0.6627 -0.65128,-0.6627h-2.42229c-0.0457,0 -0.06856,-0.01143 -0.06856,-0.05713v-2.14807c0,-0.03428 0.02285,-0.05713 0.06856,-0.05713h2.42229c0.37706,0 0.60557,-0.27422 0.60557,-0.60557c0,-0.49131 -0.28565,-0.73126 -0.60557,-0.73126h-3.1764c-0.50274,0 -0.65128,0.43418 -0.65128,0.93693v6.72986c0,0.46846 0.13711,0.90265 0.6627,0.90265h3.05072c0.41133,0 0.76554,-0.22852 0.76554,-0.6627z" data-paper-data="{&quot;glyphName&quot;:&quot;E&quot;,&quot;glyphIndex&quot;:19,&quot;lastGlyphOfWord&quot;:true,&quot;word&quot;:4}" fill="#000000" id="element-id-29688"/>
      </g>
      <g data-paper-data="{&quot;isPrimaryText&quot;:true}" fill-rule="nonzero" id="element-id-1463">
        <path d="M211.25662,283.95113l-29.03795,-29.29266h-7.13213v76.543h10.06139v-59.34948l26.10868,26.3634l26.10868,-26.3634v59.34948h10.18875v-76.543h-7.13213z" data-paper-data="{&quot;glyphName&quot;:&quot;M&quot;,&quot;glyphIndex&quot;:0,&quot;firstGlyphOfWord&quot;:true,&quot;word&quot;:1}" fill="#000000" id="element-id-43254"/>
        <path d="M298.11573,323.43255v-2.29247h-28.52851v-66.48161h-10.06139v76.543h38.5899z" data-paper-data="{&quot;glyphName&quot;:&quot;L&quot;,&quot;glyphIndex&quot;:1,&quot;word&quot;:1}" fill="#000000" id="element-id-12987"/>
        <path d="M374.91346,312.47964v0l-8.7878,-4.96702v0c-2.54719,4.58494 -6.36797,8.27836 -10.82555,10.95291c-4.58494,2.67455 -9.67932,3.94814 -14.90105,3.94814c-7.89628,0 -15.28313,-3.05663 -20.88694,-8.66044c-5.60381,-5.47645 -8.66044,-12.99066 -8.66044,-20.88694c0,-7.76892 3.05663,-15.28313 8.66044,-20.88694c5.60381,-5.47645 12.99066,-8.66044 20.88694,-8.66044c5.22174,0 10.31611,1.40095 14.90105,4.0755c4.0755,2.29247 7.51421,5.73117 10.06139,9.67932l8.53308,-5.3491c-3.4387,-5.3491 -8.02364,-9.93403 -13.62746,-13.11802c-5.98589,-3.4387 -12.8633,-5.3491 -19.86807,-5.3491c-10.57083,0 -20.50486,4.20286 -28.01907,11.58971c-7.38685,7.51421 -11.58971,17.5756 -11.58971,28.01907c0,10.57083 4.20286,20.63222 11.58971,28.01907c7.51421,7.51421 17.44824,11.71707 28.01907,11.71707c7.00477,0 13.88218,-1.91039 19.86807,-5.3491c6.11325,-3.56606 11.08027,-8.66044 14.64633,-14.77369z" data-paper-data="{&quot;glyphName&quot;:&quot;C&quot;,&quot;glyphIndex&quot;:2,&quot;lastGlyphOfWord&quot;:true,&quot;word&quot;:1}" fill="#000000" id="element-id-96561"/>
      </g>
      <g data-paper-data="{&quot;fillRule&quot;:&quot;evenodd&quot;,&quot;fillRuleOriginal&quot;:&quot;evenodd&quot;,&quot;isIcon&quot;:true,&quot;iconStyle&quot;:&quot;standalone&quot;,&quot;selectedEffects&quot;:{&quot;container&quot;:&quot;&quot;,&quot;transformation&quot;:&quot;&quot;,&quot;pattern&quot;:&quot;&quot;},&quot;bounds&quot;:{&quot;x&quot;:191.98331304648696,&quot;y&quot;:115,&quot;width&quot;:166.0333739070261,&quot;height&quot;:109.87458869306931},&quot;iconType&quot;:&quot;icon&quot;,&quot;isDetailed&quot;:false,&quot;source&quot;:&quot;noun&quot;,&quot;rawIconId&quot;:&quot;292133&quot;,&quot;suitableAsStandaloneIcon&quot;:true}" fill-rule="evenodd" id="element-id-64175">
        <path d="M297.94916,151.2555c-0.18253,0.81863 -0.41669,1.61328 -0.66928,2.39687c-2.60706,8.00372 -8.8795,14.17291 -16.88138,16.22869l-0.01107,0.00369c-1.25559,0.33925 -2.57019,0.52363 -3.90322,0.6324v-0.00553l-1.61328,0.11431l-1.13391,0.00184c-0.89607,-0.02765 -1.77922,-0.09219 -2.67896,-0.22309c-0.52547,-0.07744 -1.02697,-0.16409 -1.54138,-0.25628c-0.00369,-0.00184 -0.01107,-0.00184 -0.01475,-0.00369c-0.09403,-0.02581 -0.18069,-0.04609 -0.2194,-0.05347c-10.27337,-2.24753 -17.84381,-10.73984 -18.83759,-21.16441c-0.09219,-0.767 -0.13275,-1.59853 -0.12169,-2.54622c0.00737,-0.72275 0.05347,-1.44919 0.1475,-2.17931c0.63056,-5.10534 3.27082,-10.35819 7.86913,-15.64238c6.19315,-7.14269 14.13787,-12.18535 16.42043,-13.55894c2.301,1.34409 10.31947,6.31115 16.402,13.48519c1.29616,1.5174 2.42453,3.03666 3.38512,4.55591c2.8744,4.55959 4.22403,9.11918 4.00831,13.61425c-0.03688,0.89791 -0.12353,1.82163 -0.25997,2.74166c-0.09403,0.62872 -0.21019,1.24822 -0.34663,1.8585zM254.61551,166.70612c-0.44619,-0.17516 -0.89053,-0.34847 -1.32566,-0.53469c-0.531,-0.22678 -1.04909,-0.46647 -1.56719,-0.71353c-0.42591,-0.19544 -0.84628,-0.38903 -1.26112,-0.59737c-0.51809,-0.25628 -1.01959,-0.53284 -1.52663,-0.80756c-0.39272,-0.21756 -0.79281,-0.42591 -1.17816,-0.65084c-0.51072,-0.29684 -1.003,-0.61397 -1.50081,-0.9274c-0.35953,-0.22863 -0.73197,-0.45172 -1.08412,-0.68956c-0.51072,-0.34293 -1.00669,-0.70984 -1.5045,-1.07307c-0.31712,-0.23231 -0.64531,-0.4554 -0.95507,-0.69509c-0.54391,-0.41669 -1.06569,-0.86103 -1.58747,-1.29984c-0.24891,-0.21019 -0.50703,-0.40931 -0.74856,-0.62319c-0.75963,-0.66744 -1.49712,-1.357 -2.21066,-2.07422c-4.14843,-4.16319 -6.87903,-9.34965 -8.99934,-13.87422c-0.55497,-1.17816 -1.08412,-2.35078 -1.60591,-3.50128c-1.01222,-2.23647 -1.97097,-4.34941 -3.01822,-6.35541c-2.7011,-5.1625 -5.51281,-8.82603 -7.15928,-10.76381c2.36738,-0.64531 6.75919,-1.59668 12.17612,-1.59668c6.69097,0 13.00397,1.41231 18.76569,4.20191c2.42638,1.17263 4.78453,2.46878 7.02838,3.8645c-0.18991,0.23047 -0.35216,0.46278 -0.53653,0.69509c-0.27656,0.35216 -0.54944,0.70616 -0.81309,1.06016c-0.32819,0.43881 -0.63425,0.87947 -0.93663,1.31828c-0.24521,0.35584 -0.49044,0.71722 -0.72091,1.07307c-0.2784,0.43512 -0.53284,0.87209 -0.78912,1.30722c-0.20835,0.35953 -0.42037,0.72091 -0.61212,1.08044c-0.23416,0.43512 -0.44435,0.87394 -0.65269,1.31091c-0.16779,0.35584 -0.34478,0.71353 -0.49965,1.06937c-0.18991,0.44619 -0.35216,0.88869 -0.51809,1.33119c-0.12907,0.34663 -0.27103,0.69693 -0.38535,1.04356c-0.15119,0.46278 -0.27103,0.92372 -0.39272,1.38466c-0.08665,0.32635 -0.18807,0.65269 -0.26365,0.97903c-0.11431,0.51256 -0.18991,1.02512 -0.26919,1.53584c-0.03872,0.27288 -0.09956,0.54944 -0.13275,0.82047c-0.09403,0.78175 -0.1475,1.56535 -0.15488,2.34525c-0.01475,1.06384 0.03135,2.01153 0.13644,2.85966c0.08297,0.87025 0.2194,1.72206 0.38535,2.56282c0.04793,0.25075 0.10509,0.49965 0.16225,0.7504c0.13644,0.61397 0.295,1.22056 0.47569,1.81978c0.07191,0.23969 0.14012,0.48307 0.2194,0.72091c0.2655,0.7965 0.55312,1.58194 0.88869,2.3434c0.0166,0.03688 0.03503,0.07007 0.05347,0.10693c0.3245,0.72828 0.68772,1.43628 1.07675,2.12953c0.12169,0.2194 0.25259,0.42959 0.37797,0.64531c0.31712,0.52916 0.65269,1.04909 1.00484,1.55428c0.13828,0.19544 0.26735,0.39272 0.41116,0.58447c0.49044,0.66559 1.00484,1.31644 1.55612,1.9341c0.03688,0.04056 0.07559,0.07559 0.11247,0.11431c0.51993,0.57709 1.06937,1.12469 1.64278,1.65384c0.18069,0.16963 0.36691,0.33003 0.55497,0.49412c0.46463,0.40747 0.94216,0.79835 1.43628,1.17263c0.10879,0.08297 0.20465,0.17884 0.31712,0.25997c-0.29316,-0.0885 -0.58816,-0.177 -0.87209,-0.27103c-0.46463,-0.14935 -0.92188,-0.30237 -1.37544,-0.46463c-0.55128,-0.19544 -1.08781,-0.40378 -1.62435,-0.61397zM293.91503,167.04537c-0.47016,0.17884 -0.93847,0.36137 -1.42153,0.52731c-0.52547,0.17884 -1.06937,0.3374 -1.60959,0.50335c-0.41484,0.12537 -0.82416,0.25628 -1.24269,0.37244c0.03319,-0.02397 0.06084,-0.04979 0.09403,-0.07375c0.65822,-0.47016 1.29247,-0.97165 1.90459,-1.50266c0.13275,-0.11616 0.26365,-0.24521 0.40009,-0.36507c0.48675,-0.43881 0.95507,-0.89607 1.40863,-1.36991c0.15856,-0.16593 0.31344,-0.33003 0.46831,-0.49965c0.54759,-0.60475 1.07675,-1.22056 1.57456,-1.87325c0.00369,-0.00553 0.00737,-0.00921 0.00737,-0.01291c0.49781,-0.65637 0.95875,-1.34409 1.39388,-2.0484c0.12169,-0.19359 0.23784,-0.39088 0.35216,-0.59c0.34109,-0.57525 0.66191,-1.1634 0.96059,-1.76631c0.08297,-0.16409 0.16963,-0.3245 0.24891,-0.49228c0.35584,-0.75409 0.68035,-1.52478 0.97535,-2.31759c0.06453,-0.17331 0.11616,-0.35031 0.177,-0.52363c0.22309,-0.64716 0.42775,-1.30537 0.60844,-1.97281c0.06269,-0.23047 0.12353,-0.45909 0.18069,-0.69325c0.20097,-0.84075 0.38535,-1.69072 0.5144,-2.55912c0.15119,-1.01775 0.24521,-2.0355 0.28393,-3.01453c0.03872,-0.81125 0.02765,-1.62435 -0.02212,-2.43559c-0.01475,-0.27288 -0.06453,-0.54575 -0.09035,-0.81863c-0.05347,-0.53837 -0.10325,-1.07675 -0.19359,-1.61697c-0.05716,-0.33003 -0.14381,-0.65822 -0.21572,-0.9864c-0.10509,-0.48491 -0.20281,-0.96612 -0.33925,-1.45103c-0.09772,-0.35031 -0.22493,-0.70063 -0.33925,-1.05094c-0.15119,-0.46278 -0.29869,-0.92372 -0.47937,-1.3865c-0.14012,-0.36137 -0.30607,-0.72275 -0.46463,-1.08412c-0.19359,-0.44988 -0.39272,-0.89975 -0.61581,-1.34963c-0.18253,-0.36875 -0.38535,-0.73381 -0.58631,-1.09888c-0.24153,-0.44619 -0.48859,-0.88869 -0.75593,-1.33303c-0.22309,-0.36875 -0.46463,-0.73565 -0.70616,-1.1044c-0.29131,-0.44065 -0.59,-0.88316 -0.90344,-1.32381c-0.26181,-0.36321 -0.53653,-0.72828 -0.81309,-1.08965c-0.18069,-0.236 -0.34109,-0.47384 -0.52916,-0.70984c2.13691,-1.32381 4.46925,-2.60153 6.94725,-3.80182c5.74329,-2.77484 12.04153,-4.18163 18.71775,-4.18163c5.43722,0 9.85669,0.95875 12.22959,1.61144c-1.65016,1.93778 -4.47294,5.59947 -7.17403,10.7675c-1.02881,1.9765 -1.9765,4.0581 -2.98134,6.25953c-0.55128,1.21135 -1.11363,2.44482 -1.70363,3.69119c-2.09081,4.46003 -4.78822,9.58197 -8.95509,13.75253c-0.74119,0.74303 -1.5045,1.4584 -2.28994,2.14797c-0.25997,0.22493 -0.53284,0.43328 -0.7965,0.65269c-0.53653,0.44988 -1.06937,0.90344 -1.62435,1.32566c-0.34847,0.26919 -0.71722,0.51256 -1.07675,0.77069c-0.48675,0.35031 -0.96981,0.708 -1.47316,1.04356c-0.41669,0.2784 -0.85365,0.531 -1.2814,0.7965c-0.46093,0.28393 -0.91819,0.58078 -1.39019,0.84997c-0.47569,0.27288 -0.96797,0.51809 -1.45472,0.77622c-0.44619,0.23784 -0.88869,0.48307 -1.34594,0.70616c-0.5144,0.25259 -1.04725,0.48122 -1.5764,0.71907c-0.44988,0.19912 -0.89237,0.40747 -1.34963,0.59737c-0.54022,0.22125 -1.09519,0.42222 -1.64647,0.62688zM241.91391,171.41137c0.67297,-0.38719 1.34963,-0.72828 2.0355,-1.04356c0.15856,-0.07375 0.31712,-0.1475 0.47569,-0.21756c0.68035,-0.29684 1.36068,-0.57156 2.05578,-0.80203c0.07191,-0.02397 0.15119,-0.0424 0.22309,-0.06637c0.64163,-0.2065 1.29247,-0.37981 1.95253,-0.531c0.16225,-0.03688 0.3245,-0.07559 0.49044,-0.11063c0.71353,-0.1475 1.43997,-0.26735 2.18668,-0.35216c0.03872,-0.00369 0.07559,-0.01291 0.11247,-0.01844c-0.20465,-0.09035 -0.3964,-0.20465 -0.59737,-0.29869c-1.01959,-0.46831 -2.01338,-0.96428 -2.98503,-1.49159c-0.27656,-0.14935 -0.55865,-0.28763 -0.82784,-0.44065c-1.19475,-0.67297 -2.35447,-1.39019 -3.47915,-2.15166c-0.25259,-0.16963 -0.49044,-0.35216 -0.7375,-0.52731c-0.89237,-0.6324 -1.76816,-1.29063 -2.61812,-1.97835c-0.295,-0.23969 -0.59369,-0.47937 -0.885,-0.72644c-1.03619,-0.88316 -2.0521,-1.79397 -3.01822,-2.76378c-0.54759,-0.54575 -1.06569,-1.10809 -1.5635,-1.67966c-0.16225,-0.18437 -0.30607,-0.37612 -0.46463,-0.56419c-0.32819,-0.39088 -0.65453,-0.78175 -0.96428,-1.18369c-0.18069,-0.236 -0.34847,-0.47753 -0.52178,-0.71537c-0.26735,-0.35953 -0.53284,-0.71907 -0.78544,-1.08228c-0.177,-0.25997 -0.34293,-0.52178 -0.5144,-0.78175c-0.23047,-0.35031 -0.46463,-0.70063 -0.68403,-1.05278c-0.16963,-0.26919 -0.3245,-0.53837 -0.48675,-0.80756c-0.20835,-0.34847 -0.41853,-0.69693 -0.61581,-1.04356c-0.15488,-0.27103 -0.29869,-0.53837 -0.44619,-0.8094c-0.19175,-0.34663 -0.38165,-0.69325 -0.56603,-1.03988c-0.14012,-0.26735 -0.27288,-0.52731 -0.40747,-0.79281c-0.18069,-0.34847 -0.35584,-0.69878 -0.52916,-1.04356c-0.12537,-0.25812 -0.24891,-0.50888 -0.37059,-0.76331c-0.1014,-0.21019 -0.21203,-0.42407 -0.30975,-0.6324c-2.28625,-0.37428 -4.65547,-0.56419 -7.05787,-0.56419c-13.29897,0 -24.66016,5.78938 -28.02684,7.68844c2.23278,4.38997 11.75021,21.15518 28.89894,25.62444c3.45334,0.89791 7.94103,1.6944 12.69422,2.25491c0.42222,-0.42775 0.83522,-0.85919 1.239,-1.27956c2.31944,-2.42638 4.51534,-4.72369 7.09844,-6.21159zM329.90871,143.35871c-2.59968,0 -5.16066,0.22309 -7.6239,0.65822c-0.09035,0.18807 -0.18807,0.38165 -0.27656,0.56972c-0.13644,0.28025 -0.26919,0.55865 -0.41116,0.84075c-0.15488,0.31344 -0.31712,0.62872 -0.47569,0.94584c-0.1475,0.28393 -0.29131,0.56972 -0.4425,0.85919c-0.17331,0.32265 -0.34847,0.64716 -0.52916,0.96981c-0.15488,0.28209 -0.30975,0.56603 -0.472,0.84997c-0.19175,0.33925 -0.3964,0.67481 -0.59737,1.01222c-0.16225,0.27103 -0.32081,0.54022 -0.49044,0.81125c-0.22309,0.354 -0.46093,0.70984 -0.69509,1.06384c-0.16593,0.25075 -0.3245,0.49965 -0.49781,0.74856c-0.25997,0.37981 -0.54022,0.75409 -0.81678,1.12653c-0.16225,0.2194 -0.31712,0.4425 -0.48675,0.66007c-0.32081,0.41669 -0.66191,0.82231 -1.00484,1.22794c-0.14381,0.17147 -0.27656,0.34663 -0.42407,0.51625c-0.49965,0.57156 -1.02328,1.13391 -1.57087,1.67966c-0.96428,0.96981 -1.98019,1.88247 -3.01822,2.76563c-0.29869,0.25259 -0.60475,0.49781 -0.91081,0.74119c-0.8094,0.65453 -1.64278,1.28509 -2.49644,1.888c-0.295,0.21019 -0.58263,0.42591 -0.885,0.63056c-1.13022,0.76331 -2.28625,1.49159 -3.48284,2.16272c-0.17331,0.09772 -0.35216,0.18253 -0.52547,0.27656c-1.04356,0.5734 -2.11663,1.10809 -3.20812,1.61144c-0.17331,0.07928 -0.33188,0.177 -0.50703,0.25444c0.07928,0.00737 0.15119,0.02581 0.23047,0.03503c0.78175,0.08112 1.54506,0.18991 2.29363,0.3374c0.118,0.02397 0.23047,0.05347 0.34663,0.07744c0.68403,0.1475 1.35331,0.32265 2.01706,0.52731c0.12907,0.03872 0.25628,0.07375 0.38165,0.11431c0.71353,0.23416 1.416,0.50703 2.1111,0.81125c0.15488,0.06821 0.30975,0.14012 0.46093,0.21019c0.71353,0.33003 1.41968,0.68403 2.12031,1.08965c2.57203,1.49344 4.76056,3.78153 7.08,6.20053c0.40747,0.42775 0.83153,0.86656 1.25744,1.30353c4.78269,-0.5734 9.28697,-1.36991 12.73293,-2.26597c17.14871,-4.45634 26.68828,-21.20497 28.92475,-25.59309c-3.37591,-1.90091 -14.77212,-7.71794 -28.10797,-7.71794zM250.30666,201.60647c-2.57756,0.78728 -5.02238,1.18922 -7.28097,1.19107v0.00184h-0.02581c-16.45362,0.00184 -23.364,-8.48125 -25.53225,-12.0194c2.76931,-0.54391 8.024,-1.84006 11.54556,-4.31991c2.26966,-1.593 4.1171,-3.33903 5.54231,-4.78084l0.00369,0.00184l0.45356,-0.45909c0.58447,-0.59369 1.15235,-1.18737 1.70731,-1.76816c2.18853,-2.2881 4.25906,-4.44897 6.51397,-5.74881c3.49759,-2.01522 7.09475,-2.95368 11.31878,-2.95368c0.73012,0 1.49344,0.0295 2.29731,0.08665c0.25812,0.01844 0.55497,0.059 0.82416,0.08481c0.54759,0.05163 3.30215,0.61028 4.06178,0.79097c0.1475,0.03319 1.08044,0.23416 1.39756,0.30237c0.37059,0.07928 0.74119,0.16779 1.11916,0.24153c0.30607,0.059 0.6195,0.10693 0.93294,0.16225c0.18991,0.03503 0.38165,0.08112 0.57525,0.11431c-0.09035,0.03319 -0.17331,0.08297 -0.26365,0.11984c-0.84259,0.33188 -1.66675,0.70984 -2.46694,1.13575c-0.06821,0.03872 -0.14012,0.06637 -0.20835,0.10509c-0.82416,0.44988 -1.60959,0.96244 -2.37659,1.50635c-0.1475,0.10693 -0.295,0.20835 -0.4425,0.31897c-0.7375,0.55128 -1.44735,1.14312 -2.124,1.78291c-0.12169,0.11431 -0.24153,0.23969 -0.36321,0.35769c-0.69509,0.68219 -1.36807,1.39756 -1.99125,2.1701c-3.55844,4.36231 -5.57734,9.73316 -5.841,15.53359c-0.02581,0.5605 -0.02212,1.121 0,1.68335c0.00553,0.19544 0.02397,0.38903 0.03872,0.58263c0.02212,0.37244 0.05531,0.74303 0.09772,1.11178c0.0295,0.22125 0.06084,0.44065 0.09403,0.66007c0.05531,0.35584 0.11984,0.70984 0.19175,1.06384c0.0424,0.20835 0.08665,0.41853 0.13644,0.62503c0.02212,0.10509 0.03872,0.21019 0.06453,0.31528zM332.43465,190.81499c-2.16825,3.53631 -9.07125,12.00097 -25.52856,12.00097h-0.04425c-2.54253,-0.00553 -5.28787,-0.50888 -8.1715,-1.49159c0.01107,-0.04793 0.01475,-0.09588 0.0295,-0.14197c0.21019,-0.79097 0.37244,-1.58009 0.49044,-2.36553c0.02397,-0.15856 0.0424,-0.31528 0.06084,-0.47569c0.10509,-0.80203 0.18069,-1.60038 0.18437,-2.3895c0.06084,-5.83362 -1.94147,-11.50316 -5.63634,-15.96503c-0.63056,-0.76516 -1.31091,-1.47316 -2.01706,-2.15166c-0.10879,-0.10325 -0.20835,-0.20835 -0.31712,-0.30791c-0.68035,-0.6324 -1.40125,-1.21872 -2.14244,-1.76816c-0.14381,-0.10693 -0.28763,-0.21019 -0.43512,-0.31528c-0.75593,-0.531 -1.53768,-1.02881 -2.35078,-1.475c-0.12169,-0.06821 -0.25259,-0.12721 -0.37428,-0.19359c-0.83707,-0.44065 -1.68887,-0.83891 -2.57203,-1.18553c-0.0295,-0.00921 -0.05716,-0.02581 -0.08665,-0.03872c0.18069,-0.03135 0.35216,-0.07007 0.53284,-0.10325c0.66007,-0.11247 1.31091,-0.236 1.94884,-0.36875c0.28393,-0.06084 0.56972,-0.11616 0.84997,-0.17884c0.8094,-0.17884 3.52156,-0.77807 3.91428,-0.826c0.118,-0.01291 0.24891,-0.03319 0.36691,-0.04793c0.35769,-0.04056 2.16456,-0.19359 2.48906,-0.21203c0.13459,-0.00921 0.2784,-0.02212 0.40747,-0.02765c0.45356,-0.02028 0.89422,-0.0295 1.32566,-0.0295c4.23694,0 7.83962,0.94216 11.33537,2.96844c2.24568,1.30537 4.30884,3.46072 6.49553,5.74143c0.56235,0.59 1.13944,1.18922 1.72944,1.79212l0.06453,0.06453l0.38903,0.39456l0.00737,-0.00184c1.54875,1.54875 3.37406,3.26344 5.51281,4.76794c3.52156,2.49275 8.77625,3.78706 11.54188,4.33097zM271.63516,173.74925c0.07559,-0.01107 0.7965,-0.07375 0.7965,-0.07375c0.19175,-0.00737 0.38165,-0.0166 0.57525,-0.02581l1.93778,-0.05163l1.5764,0.04056c0.49597,0.04056 0.99747,0.12169 1.49712,0.19912c0.23047,0.03503 0.46093,0.05163 0.68772,0.09403c0.75225,0.13828 1.50266,0.31712 2.24384,0.53469l0.00737,0.00184c4.24984,1.27403 7.99081,3.76494 10.81728,7.20353c3.30215,3.9825 5.08691,9.0436 5.03343,14.25219c-0.01844,1.88247 -0.35584,3.835 -1.00484,5.80413c-3.92534,11.9475 -18.31581,21.19944 -21.53131,23.14644c-3.20628,-1.88616 -17.45478,-10.83756 -21.08144,-22.80719c-0.67112,-2.10556 -0.96244,-4.25353 -0.86472,-6.3849c0.23784,-5.22887 2.05394,-10.06319 5.25469,-13.98668c2.93894,-3.64325 6.80528,-6.18209 11.20263,-7.36394l1.06937,-0.27103c0.09772,-0.02397 0.19359,-0.04425 0.29131,-0.06453c0.472,-0.09956 0.96981,-0.18253 1.49159,-0.24707z" data-paper-data="{&quot;isPathIcon&quot;:true}" fill="#000000" id="element-id-17942"/>
      </g>
    </g>
  </g>
  <rect data-element-id="element-id-64175" stroke-width="2" fill="transparent" class="invisible-element-box grouping-element" x="192" y="115" width="166" height="110" data-element-name="isIcon"/>
  <rect data-element-id="element-id-17942" stroke-width="2" fill="transparent" class="invisible-element-box individual-element" x="192" y="115" width="166" height="110"/>
  <rect data-element-id="element-id-1463" stroke-width="2" fill="transparent" class="invisible-element-box grouping-element" x="175" y="253" width="200" height="79" data-element-name="isPrimaryText"/>
  <rect data-element-id="element-id-96561" stroke-width="2" fill="transparent" class="invisible-element-box individual-element" x="301" y="253" width="74" height="79"/>
  <rect data-element-id="element-id-43254" stroke-width="2" fill="transparent" class="invisible-element-box individual-element" x="175" y="255" width="72" height="77"/>
  <rect data-element-id="element-id-12987" stroke-width="2" fill="transparent" class="invisible-element-box individual-element" x="260" y="255" width="39" height="77"/>
  <rect data-element-id="element-id-9418" stroke-width="2" fill="transparent" class="invisible-element-box grouping-element" x="175" y="346" width="188" height="9" data-element-name="isSecondaryText"/>
  <rect data-element-id="element-id-5939" stroke-width="2" fill="transparent" class="invisible-element-box individual-element" x="175" y="346" width="9" height="9"/>
  <rect data-element-id="element-id-91847" stroke-width="2" fill="transparent" class="invisible-element-box individual-element" x="319" y="346" width="9" height="9"/>
  <rect data-element-id="element-id-67427" stroke-width="2" fill="transparent" class="invisible-element-box individual-element" x="195" y="346" width="7" height="9"/>
  <rect data-element-id="element-id-3669" stroke-width="2" fill="transparent" class="invisible-element-box individual-element" x="246" y="346" width="7" height="9"/>
  <rect data-element-id="element-id-14138" stroke-width="2" fill="transparent" class="invisible-element-box individual-element" x="270" y="346" width="7" height="9"/>
  <rect data-element-id="element-id-87810" stroke-width="2" fill="transparent" class="invisible-element-box individual-element" x="339" y="346" width="7" height="9"/>
  <rect data-element-id="element-id-23976" stroke-width="2" fill="transparent" class="invisible-element-box individual-element" x="187" y="346" width="5" height="9"/>
  <rect data-element-id="element-id-1545" stroke-width="2" fill="transparent" class="invisible-element-box individual-element" x="218" y="346" width="5" height="9"/>
  <rect data-element-id="element-id-62221" stroke-width="2" fill="transparent" class="invisible-element-box individual-element" x="227" y="346" width="5" height="9"/>
  <rect data-element-id="element-id-67642" stroke-width="2" fill="transparent" class="invisible-element-box individual-element" x="288" y="346" width="5" height="9"/>
  <rect data-element-id="element-id-71053" stroke-width="2" fill="transparent" class="invisible-element-box individual-element" x="296" y="346" width="5" height="9"/>
  <rect data-element-id="element-id-76062" stroke-width="2" fill="transparent" class="invisible-element-box individual-element" x="311" y="346" width="5" height="9"/>
  <rect data-element-id="element-id-46387" stroke-width="2" fill="transparent" class="invisible-element-box individual-element" x="331" y="346" width="5" height="9"/>
  <rect data-element-id="element-id-51456" stroke-width="2" fill="transparent" class="invisible-element-box individual-element" x="349" y="346" width="5" height="9"/>
  <rect data-element-id="element-id-83123" stroke-width="2" fill="transparent" class="invisible-element-box individual-element" x="206" y="346" width="4" height="9"/>
  <rect data-element-id="element-id-82077" stroke-width="2" fill="transparent" class="invisible-element-box individual-element" x="262" y="346" width="4" height="9"/>
  <rect data-element-id="element-id-2371" stroke-width="2" fill="transparent" class="invisible-element-box individual-element" x="280" y="346" width="4" height="9"/>
  <rect data-element-id="element-id-29688" stroke-width="2" fill="transparent" class="invisible-element-box individual-element" x="358" y="346" width="4" height="9"/>
  <rect data-element-id="element-id-73276" stroke-width="2" fill="transparent" class="invisible-element-box individual-element" x="213" y="346" width="1" height="9"/>
  <rect data-element-id="element-id-87339" stroke-width="2" fill="transparent" class="invisible-element-box individual-element" x="241" y="346" width="1" height="9"/>
</svg>
